<svg xmlns="http://www.w3.org/2000/svg" viewBox="0 0 448 96" fill="none" role="img" aria-label="agent-bom — BOM for humans &amp; agents">
  <defs>
    <linearGradient id="abg" x1="0" y1="0" x2="1" y2="1">
      <stop offset="0%" stop-color="#34d399"/>
      <stop offset="100%" stop-color="#22d3ee"/>
    </linearGradient>
  </defs>
  <g transform="translate(8, 16) scale(0.84)">
    <rect x="0" y="0" width="64" height="64" rx="16" fill="#0c1210" stroke="url(#abg)" stroke-width="2.4"/>
    <rect x="14" y="14" width="18" height="16" rx="5" fill="none" stroke="url(#abg)" stroke-width="2.25"/>
    <circle cx="20" cy="21" r="1.9" fill="#34d399"/>
    <circle cx="26" cy="21" r="1.9" fill="#22d3ee"/>
    <path d="M23 14V10.5" stroke="url(#abg)" stroke-width="2.25" stroke-linecap="round"/>
    <circle cx="23" cy="9.5" r="1.6" fill="url(#abg)"/>
    <path d="M32 22h4" stroke="url(#abg)" stroke-width="2" stroke-linecap="round"/>
    <rect x="36" y="13" width="16" height="22" rx="3" fill="#111a17" stroke="url(#abg)" stroke-width="1.75"/>
    <rect x="39" y="11" width="10" height="3.5" rx="1.5" fill="url(#abg)"/>
    <rect x="39.5" y="19" width="9" height="2.2" rx="1" fill="#34d399" fill-opacity="0.45"/>
    <rect x="39.5" y="24" width="9" height="2.5" rx="1.1" fill="url(#abg)"/>
    <rect x="46.5" y="24.25" width="2.2" height="2" rx="0.7" fill="#f87171"/>
    <rect x="39.5" y="29.5" width="6" height="2.2" rx="1" fill="#22d3ee" fill-opacity="0.45"/>
    <rect x="14" y="44" width="36" height="3" rx="1.5" fill="url(#abg)" fill-opacity="0.3"/>
    <rect x="14" y="50" width="24" height="3" rx="1.5" fill="#22d3ee" fill-opacity="0.3"/>
  </g>
  <text x="88" y="52" font-family="system-ui, -apple-system, 'Segoe UI', Roboto, sans-serif" font-size="34" font-weight="800" letter-spacing="-0.5" fill="#e6edf3">agent<tspan fill="url(#abg)">·bom</tspan></text>
  <text x="90" y="74" font-family="system-ui, -apple-system, 'Segoe UI', Roboto, sans-serif" font-size="12.5" font-weight="500" letter-spacing="0.2" fill="#8b949e">BOM for humans &amp; agents</text>
</svg>
