<svg xmlns="http://www.w3.org/2000/svg" viewBox="0 0 448 96" fill="none" role="img" aria-label="agent-bom — BOM for humans &amp; agents">
  <defs>
    <linearGradient id="abg" x1="0" y1="0" x2="1" y2="1">
      <stop offset="0%" stop-color="#34d399"/>
      <stop offset="100%" stop-color="#22d3ee"/>
    </linearGradient>
  </defs>
  <g transform="translate(8, 16)">
    <rect x="0" y="0" width="54" height="54" rx="16" fill="#0c1210" stroke="url(#abg)" stroke-width="2"/>
    <circle cx="17" cy="15" r="4" fill="url(#abg)"/>
    <path d="M10.5 26c1.1-4 3.4-5.9 6.5-5.9S22.4 22 23.5 26" fill="none" stroke="url(#abg)" stroke-width="2.1" stroke-linecap="round"/>
    <rect x="29" y="10.5" width="13.5" height="11.5" rx="3.2" fill="none" stroke="url(#abg)" stroke-width="1.9"/>
    <circle cx="33.5" cy="15.8" r="1.45" fill="#34d399"/>
    <circle cx="38" cy="15.8" r="1.45" fill="#22d3ee"/>
    <path d="M35.75 10.5V7.6" stroke="url(#abg)" stroke-width="1.9" stroke-linecap="round"/>
    <circle cx="35.75" cy="6.7" r="1.25" fill="url(#abg)"/>
    <path d="M23.5 19h5" stroke="url(#abg)" stroke-width="1.6" stroke-linecap="round" stroke-opacity="0.7"/>
    <rect x="11" y="31" width="32" height="3.1" rx="1.5" fill="#34d399" fill-opacity="0.35"/>
    <rect x="11" y="37.2" width="32" height="3.5" rx="1.7" fill="url(#abg)"/>
    <rect x="40.5" y="37.6" width="3.1" height="2.6" rx="1" fill="#f87171"/>
    <rect x="11" y="44" width="22" height="3.1" rx="1.5" fill="#22d3ee" fill-opacity="0.35"/>
  </g>
  <text x="88" y="52" font-family="system-ui, -apple-system, 'Segoe UI', Roboto, sans-serif" font-size="34" font-weight="800" letter-spacing="-0.5" fill="#e6edf3">agent<tspan fill="url(#abg)">·bom</tspan></text>
  <text x="90" y="74" font-family="system-ui, -apple-system, 'Segoe UI', Roboto, sans-serif" font-size="12.5" font-weight="500" letter-spacing="0.2" fill="#8b949e">BOM for humans &amp; agents</text>
</svg>
