<svg xmlns="http://www.w3.org/2000/svg" viewBox="0 0 448 96" fill="none" role="img" aria-label="agent-bom — BOM for humans &amp; agents">
  <defs>
    <linearGradient id="abg" x1="0" y1="0" x2="1" y2="1">
      <stop offset="0%" stop-color="#34d399"/>
      <stop offset="100%" stop-color="#22d3ee"/>
    </linearGradient>
  </defs>
  <g transform="translate(8, 16) scale(0.84)">
    <rect x="4" y="4" width="56" height="56" rx="16" fill="#0c1210" stroke="url(#abg)" stroke-width="2.4"/>
    <path fill="url(#abg)" d="M7.5 18.5h6.8c3.3 0 5.3 1.75 5.3 4.35 0 1.75-.95 3.05-2.5 3.7 1.85.7 3.05 2.15 3.05 4.35 0 2.8-2.2 4.55-5.9 4.55H7.5V18.5zm3.35 2.85v4.35h2.55c1.55 0 2.45-.75 2.45-2.15s-1-2.2-2.7-2.2h-2.3zm0 7v4.65h2.9c1.7 0 2.75-.85 2.75-2.35s-1-2.3-2.8-2.3h-2.85z"/>
    <circle cx="32" cy="30.5" r="10.2" fill="none" stroke="url(#abg)" stroke-width="2.5"/>
    <circle cx="28.4" cy="29.1" r="1.9" fill="#34d399"/>
    <circle cx="35.6" cy="29.1" r="1.9" fill="#22d3ee"/>
    <path d="M29.5 34.5c.95 1 2.05 1.5 3.4 1.5s2.45-.5 3.4-1.5" fill="none" stroke="url(#abg)" stroke-width="1.6" stroke-linecap="round"/>
    <path d="M32 20.3V16.4" stroke="url(#abg)" stroke-width="2.2" stroke-linecap="round"/>
    <circle cx="32" cy="14.8" r="1.55" fill="url(#abg)"/>
    <path fill="url(#abg)" d="M44.5 18.5h3.4l3.55 10.7 3.55-10.7H58.5v18h-3.05V28.2L52.1 36.5h-2.7l-3.25-8.3V36.5H43V18.5h1.5z"/>
  </g>
  <text x="88" y="52" font-family="system-ui, -apple-system, 'Segoe UI', Roboto, sans-serif" font-size="34" font-weight="800" letter-spacing="-0.5" fill="#e6edf3">agent<tspan fill="url(#abg)">·bom</tspan></text>
  <text x="90" y="74" font-family="system-ui, -apple-system, 'Segoe UI', Roboto, sans-serif" font-size="12.5" font-weight="500" letter-spacing="0.2" fill="#8b949e">BOM for humans &amp; agents</text>
</svg>
