<svg xmlns="http://www.w3.org/2000/svg" viewBox="0 0 448 96" fill="none" role="img" aria-label="agent-bom — BOM for humans &amp; agents">
  <defs>
    <linearGradient id="abg" x1="0" y1="0" x2="1" y2="1">
      <stop offset="0%" stop-color="#34d399"/>
      <stop offset="100%" stop-color="#22d3ee"/>
    </linearGradient>
  </defs>
  <g transform="translate(8, 16) scale(0.84)">
    <rect x="0" y="0" width="64" height="64" rx="16" fill="#0c1210" stroke="url(#abg)" stroke-width="2.4"/>
    <circle cx="26" cy="20" r="6" fill="url(#abg)"/>
    <path d="M14 42c2.5-8 7-12 12-12s9.5 4 12 12" fill="none" stroke="url(#abg)" stroke-width="2.5" stroke-linecap="round"/>
    <path d="M20 30.5 26 36l6-5.5" fill="none" stroke="url(#abg)" stroke-width="2" stroke-linecap="round" stroke-linejoin="round"/>
    <path d="M26 30.5v6l-2 5h4l-2-5" fill="url(#abg)" fill-opacity="0.9"/>
    <rect x="38" y="16" width="16" height="22" rx="3" fill="#111a17" stroke="url(#abg)" stroke-width="1.75"/>
    <rect x="41" y="14" width="10" height="4" rx="1.5" fill="url(#abg)"/>
    <rect x="41.5" y="22" width="9" height="2.25" rx="1" fill="#34d399" fill-opacity="0.4"/>
    <rect x="41.5" y="27" width="9" height="2.5" rx="1" fill="url(#abg)"/>
    <rect x="48.5" y="27.25" width="2.25" height="2" rx="0.75" fill="#f87171"/>
    <rect x="41.5" y="32.5" width="6.5" height="2.25" rx="1" fill="#22d3ee" fill-opacity="0.4"/>
  </g>
  <text x="88" y="52" font-family="system-ui, -apple-system, 'Segoe UI', Roboto, sans-serif" font-size="34" font-weight="800" letter-spacing="-0.5" fill="#e6edf3">agent<tspan fill="url(#abg)">·bom</tspan></text>
  <text x="90" y="74" font-family="system-ui, -apple-system, 'Segoe UI', Roboto, sans-serif" font-size="12.5" font-weight="500" letter-spacing="0.2" fill="#8b949e">BOM for humans &amp; agents</text>
</svg>
