<svg xmlns="http://www.w3.org/2000/svg" viewBox="0 0 880 420" fill="none">
  <defs>
    <marker id="arrow-down" viewBox="0 0 10 10" refX="5" refY="10" markerWidth="8" markerHeight="8" orient="auto">
      <path d="M0 0L5 10L10 0" fill="none" stroke="#94a3b8" stroke-width="2"/>
    </marker>
  </defs>

  <!-- Background -->
  <rect width="880" height="420" rx="16" fill="#ffffff" stroke="#e2e8f0" stroke-width="1.5"/>

  <!-- ─── ROW 1: INPUT SOURCES ─── -->
  <rect x="30" y="24" width="820" height="90" rx="12" fill="#eff6ff" stroke="#bfdbfe" stroke-width="1.2"/>
  <text x="440" y="46" text-anchor="middle" font-family="system-ui, sans-serif" font-size="11" font-weight="700" fill="#3b82f6" letter-spacing="0.1em">INPUT SOURCES</text>

  <!-- Source pills -->
  <rect x="52" y="56" width="120" height="44" rx="10" fill="#ffffff" stroke="#93c5fd" stroke-width="1.2"/>
  <text x="112" y="83" text-anchor="middle" font-family="system-ui, sans-serif" font-size="13" font-weight="600" fill="#1e40af">MCP Configs</text>

  <rect x="184" y="56" width="120" height="44" rx="10" fill="#ffffff" stroke="#93c5fd" stroke-width="1.2"/>
  <text x="244" y="83" text-anchor="middle" font-family="system-ui, sans-serif" font-size="13" font-weight="600" fill="#1e40af">Containers</text>

  <rect x="316" y="56" width="120" height="44" rx="10" fill="#ffffff" stroke="#93c5fd" stroke-width="1.2"/>
  <text x="376" y="83" text-anchor="middle" font-family="system-ui, sans-serif" font-size="13" font-weight="600" fill="#1e40af">Kubernetes</text>

  <rect x="448" y="56" width="120" height="44" rx="10" fill="#ffffff" stroke="#93c5fd" stroke-width="1.2"/>
  <text x="508" y="83" text-anchor="middle" font-family="system-ui, sans-serif" font-size="13" font-weight="600" fill="#1e40af">Cloud APIs</text>

  <rect x="580" y="56" width="120" height="44" rx="10" fill="#ffffff" stroke="#93c5fd" stroke-width="1.2"/>
  <text x="640" y="83" text-anchor="middle" font-family="system-ui, sans-serif" font-size="13" font-weight="600" fill="#1e40af">SBOMs</text>

  <rect x="712" y="56" width="126" height="44" rx="10" fill="#ffffff" stroke="#93c5fd" stroke-width="1.2"/>
  <text x="775" y="83" text-anchor="middle" font-family="system-ui, sans-serif" font-size="13" font-weight="600" fill="#1e40af">AI Frameworks</text>

  <!-- Arrow down -->
  <path d="M440 114 L440 136" stroke="#94a3b8" stroke-width="2.5" stroke-linecap="round"/>
  <path d="M434 130 L440 140 L446 130" fill="#94a3b8"/>

  <!-- ─── ROW 2: SCANNER ENGINE ─── -->
  <rect x="30" y="144" width="620" height="110" rx="12" fill="#fffbeb" stroke="#fcd34d" stroke-width="1.2"/>
  <text x="340" y="166" text-anchor="middle" font-family="system-ui, sans-serif" font-size="11" font-weight="700" fill="#d97706" letter-spacing="0.1em">SCANNER ENGINE</text>

  <!-- Pipeline stages -->
  <rect x="46" y="178" width="90" height="60" rx="8" fill="#fef3c7" stroke="#f59e0b" stroke-width="1.5"/>
  <text x="91" y="200" text-anchor="middle" font-family="system-ui, sans-serif" font-size="14" font-weight="700" fill="#92400e">Discover</text>
  <text x="91" y="216" text-anchor="middle" font-family="system-ui, sans-serif" font-size="10" fill="#a16207">18 clients</text>

  <path d="M140 208 L152 208" stroke="#d97706" stroke-width="2" stroke-linecap="round"/>
  <path d="M148 204 L155 208 L148 212" fill="#d97706"/>

  <rect x="160" y="178" width="90" height="60" rx="8" fill="#fef3c7" stroke="#f59e0b" stroke-width="1.5"/>
  <text x="205" y="200" text-anchor="middle" font-family="system-ui, sans-serif" font-size="14" font-weight="700" fill="#92400e">Extract</text>
  <text x="205" y="216" text-anchor="middle" font-family="system-ui, sans-serif" font-size="10" fill="#a16207">packages</text>

  <path d="M254 208 L266 208" stroke="#d97706" stroke-width="2" stroke-linecap="round"/>
  <path d="M262 204 L269 208 L262 212" fill="#d97706"/>

  <rect x="274" y="178" width="90" height="60" rx="8" fill="#fef3c7" stroke="#f59e0b" stroke-width="1.5"/>
  <text x="319" y="200" text-anchor="middle" font-family="system-ui, sans-serif" font-size="14" font-weight="700" fill="#92400e">Scan</text>
  <text x="319" y="216" text-anchor="middle" font-family="system-ui, sans-serif" font-size="10" fill="#a16207">OSV + Grype</text>

  <path d="M368 208 L380 208" stroke="#d97706" stroke-width="2" stroke-linecap="round"/>
  <path d="M376 204 L383 208 L376 212" fill="#d97706"/>

  <rect x="388" y="178" width="90" height="60" rx="8" fill="#fef3c7" stroke="#f59e0b" stroke-width="1.5"/>
  <text x="433" y="200" text-anchor="middle" font-family="system-ui, sans-serif" font-size="14" font-weight="700" fill="#92400e">Enrich</text>
  <text x="433" y="216" text-anchor="middle" font-family="system-ui, sans-serif" font-size="10" fill="#a16207">NVD + EPSS</text>

  <path d="M482 208 L494 208" stroke="#d97706" stroke-width="2" stroke-linecap="round"/>
  <path d="M490 204 L497 208 L490 212" fill="#d97706"/>

  <rect x="502" y="178" width="90" height="60" rx="8" fill="#fef3c7" stroke="#f59e0b" stroke-width="1.5"/>
  <text x="547" y="200" text-anchor="middle" font-family="system-ui, sans-serif" font-size="14" font-weight="700" fill="#92400e">Analyze</text>
  <text x="547" y="216" text-anchor="middle" font-family="system-ui, sans-serif" font-size="10" fill="#a16207">blast radius</text>

  <!-- ─── SIDEBAR: RUNTIME ─── -->
  <rect x="666" y="144" width="184" height="110" rx="12" fill="#f5f3ff" stroke="#c4b5fd" stroke-width="1.2"/>
  <text x="758" y="166" text-anchor="middle" font-family="system-ui, sans-serif" font-size="11" font-weight="700" fill="#7c3aed" letter-spacing="0.1em">RUNTIME</text>

  <text x="688" y="190" font-family="system-ui, sans-serif" font-size="12" font-weight="600" fill="#6d28d9">MCP Proxy</text>
  <text x="688" y="208" font-family="system-ui, sans-serif" font-size="12" font-weight="600" fill="#6d28d9">Protection Engine</text>
  <text x="688" y="226" font-family="system-ui, sans-serif" font-size="12" font-weight="600" fill="#6d28d9">Fleet Management</text>
  <text x="688" y="244" font-family="system-ui, sans-serif" font-size="12" font-weight="600" fill="#6d28d9">Alert Pipeline</text>

  <!-- Dotted connector to runtime -->
  <path d="M596 208 L666 208" stroke="#a78bfa" stroke-width="1.5" stroke-dasharray="6 4"/>

  <!-- Arrow down from engine -->
  <path d="M340 254 L340 276" stroke="#94a3b8" stroke-width="2.5" stroke-linecap="round"/>
  <path d="M334 270 L340 280 L346 270" fill="#94a3b8"/>

  <!-- ─── ROW 3: OUTPUTS ─── -->
  <rect x="30" y="284" width="820" height="108" rx="12" fill="#ecfdf5" stroke="#6ee7b7" stroke-width="1.2"/>
  <text x="440" y="306" text-anchor="middle" font-family="system-ui, sans-serif" font-size="11" font-weight="700" fill="#059669" letter-spacing="0.1em">OUTPUTS</text>

  <rect x="46" y="318" width="110" height="44" rx="10" fill="#ffffff" stroke="#6ee7b7" stroke-width="1.2"/>
  <text x="101" y="345" text-anchor="middle" font-family="system-ui, sans-serif" font-size="12" font-weight="600" fill="#065f46">JSON / SARIF</text>

  <rect x="168" y="318" width="110" height="44" rx="10" fill="#ffffff" stroke="#6ee7b7" stroke-width="1.2"/>
  <text x="223" y="345" text-anchor="middle" font-family="system-ui, sans-serif" font-size="12" font-weight="600" fill="#065f46">CycloneDX</text>

  <rect x="290" y="318" width="110" height="44" rx="10" fill="#ffffff" stroke="#6ee7b7" stroke-width="1.2"/>
  <text x="345" y="345" text-anchor="middle" font-family="system-ui, sans-serif" font-size="12" font-weight="600" fill="#065f46">Dashboard</text>

  <rect x="412" y="318" width="110" height="44" rx="10" fill="#ffffff" stroke="#6ee7b7" stroke-width="1.2"/>
  <text x="467" y="345" text-anchor="middle" font-family="system-ui, sans-serif" font-size="12" font-weight="600" fill="#065f46">REST API</text>

  <rect x="534" y="318" width="110" height="44" rx="10" fill="#ffffff" stroke="#6ee7b7" stroke-width="1.2"/>
  <text x="589" y="345" text-anchor="middle" font-family="system-ui, sans-serif" font-size="12" font-weight="600" fill="#065f46">MCP Server</text>

  <rect x="656" y="318" width="110" height="44" rx="10" fill="#ffffff" stroke="#6ee7b7" stroke-width="1.2"/>
  <text x="711" y="345" text-anchor="middle" font-family="system-ui, sans-serif" font-size="12" font-weight="600" fill="#065f46">Slack / Jira</text>

  <!-- ─── FOOTER: COMPLIANCE ─── -->
  <rect x="30" y="396" width="820" height="2" rx="1" fill="#e2e8f0"/>
  <text x="440" y="415" text-anchor="middle" font-family="system-ui, sans-serif" font-size="10" font-weight="600" fill="#64748b" letter-spacing="0.05em">OWASP LLM + MCP + Agentic  |  MITRE ATLAS  |  NIST AI RMF + CSF 2.0  |  EU AI Act  |  ISO 27001  |  SOC 2  |  CIS v8</text>
</svg>
