<?xml version="1.0" encoding="UTF-8"?>
<svg xmlns="http://www.w3.org/2000/svg" width="960" height="560" viewBox="0 0 960 560" fill="none">
<title>How agent-bom works</title>
<desc>Read-only intake through scan pipeline into unified Finding and ContextGraph.</desc>
<defs>
<linearGradient id="core-glow" x1="0" y1="0" x2="1" y2="1"><stop offset="0%" stop-color="#7c3aed" stop-opacity="0.28"/><stop offset="100%" stop-color="#7c3aed" stop-opacity="0"/></linearGradient>
</defs>
<rect width="960" height="560" rx="14" fill="#ffffff"/>
<rect x="10" y="10" width="940" height="540" rx="16" fill="none" stroke="#f59e0b" stroke-width="2" opacity="0.28"/>
<rect x="850" y="20" width="86" height="22" rx="11" fill="#78350f" opacity="0.72"/>
<text x="893" y="35" text-anchor="middle" font-family="Inter,system-ui,sans-serif" font-size="8" font-weight="800" letter-spacing="0.14em" fill="#fde68a">WORKFLOW</text>
<text x="28" y="40" font-family="Inter,system-ui,sans-serif" font-size="20" font-weight="800" fill="#18181b">From inventory to enforceable evidence</text>
<text x="28" y="60" font-family="Inter,system-ui,sans-serif" font-size="10" font-weight="500" fill="#71717a">Five-stage read-only flow · intake -&gt; scan -&gt; evidence -&gt; control -&gt; artifacts</text>
<rect x="24" y="102" width="174" height="348" rx="12" fill="#fafafa" stroke="#ececf0"/>
<rect x="27" y="105" width="168" height="29" rx="7" fill="#1e3a5f"/><text x="37" y="123" font-family="Inter,system-ui,sans-serif" font-size="9.5" font-weight="800" letter-spacing="0.12em" fill="#93c5fd">INTAKE</text><text x="187" y="123" text-anchor="end" font-family="Inter,system-ui,sans-serif" font-size="7.5" font-weight="600" fill="#60a5fa" opacity="0.95">read-only</text>
<rect x="208" y="102" width="174" height="348" rx="12" fill="#fafafa" stroke="#ececf0"/>
<rect x="211" y="105" width="168" height="29" rx="7" fill="#78350f"/><text x="221" y="123" font-family="Inter,system-ui,sans-serif" font-size="9.5" font-weight="800" letter-spacing="0.12em" fill="#fde68a">SCAN</text><text x="371" y="123" text-anchor="end" font-family="Inter,system-ui,sans-serif" font-size="7.5" font-weight="600" fill="#fbbf24" opacity="0.95">6 steps</text>
<rect x="392" y="102" width="174" height="348" rx="12" fill="#fafafa" stroke="#ececf0"/>
<rect x="395" y="105" width="168" height="29" rx="7" fill="#5b21b6"/><text x="405" y="123" font-family="Inter,system-ui,sans-serif" font-size="9.5" font-weight="800" letter-spacing="0.12em" fill="#ddd6fe">EVIDENCE</text><text x="555" y="123" text-anchor="end" font-family="Inter,system-ui,sans-serif" font-size="7.5" font-weight="600" fill="#a78bfa" opacity="0.95">one model</text>
<rect x="576" y="102" width="174" height="348" rx="12" fill="#fafafa" stroke="#ececf0"/>
<rect x="579" y="105" width="168" height="29" rx="7" fill="#065f46"/><text x="589" y="123" font-family="Inter,system-ui,sans-serif" font-size="9.5" font-weight="800" letter-spacing="0.12em" fill="#a7f3d0">CONTROL</text><text x="739" y="123" text-anchor="end" font-family="Inter,system-ui,sans-serif" font-size="7.5" font-weight="600" fill="#34d399" opacity="0.95">self-hosted</text>
<rect x="760" y="102" width="174" height="348" rx="12" fill="#fafafa" stroke="#ececf0"/>
<rect x="763" y="105" width="168" height="29" rx="7" fill="#3f3f46"/><text x="773" y="123" font-family="Inter,system-ui,sans-serif" font-size="9.5" font-weight="800" letter-spacing="0.12em" fill="#d4d4d8">OUT</text><text x="923" y="123" text-anchor="end" font-family="Inter,system-ui,sans-serif" font-size="7.5" font-weight="600" fill="#a1a1aa" opacity="0.95">artifacts</text>
<rect x="32" y="146" width="74" height="38" rx="9" fill="#ffffff" stroke="#e6e6ea"/>
<rect x="38" y="153" width="24" height="24" rx="6" fill="#f4f4f6" stroke="#e6e6ea"/><g transform="translate(42,157) scale(0.6666666666666666)" fill="none" stroke="#5c5c66" stroke-width="1.5" stroke-linecap="round" stroke-linejoin="round"><path d="M4 6h8l3 3v11H4z M12 6v3h3"/></g>
<text x="66" y="170" font-family="Inter,system-ui,sans-serif" font-size="9.5" font-weight="700" fill="#18181b">Repo</text>
<rect x="114" y="146" width="74" height="38" rx="9" fill="#ffffff" stroke="#e6e6ea"/>
<rect x="120" y="153" width="24" height="24" rx="6" fill="#f4f4f6" stroke="#e6e6ea"/><g transform="translate(124,157) scale(0.6666666666666666)" fill="none" stroke="#5c5c66" stroke-width="1.5" stroke-linecap="round" stroke-linejoin="round"><path d="M6 14l4 4 10-11"/></g>
<text x="148" y="170" font-family="Inter,system-ui,sans-serif" font-size="9.5" font-weight="700" fill="#18181b">CI</text>
<rect x="32" y="194" width="74" height="38" rx="9" fill="#ffffff" stroke="#e6e6ea"/>
<rect x="38" y="201" width="24" height="24" rx="6" fill="#f4f4f6" stroke="#e6e6ea"/><g transform="translate(42,205) scale(0.6666666666666666)" fill="none" stroke="#5c5c66" stroke-width="1.5" stroke-linecap="round" stroke-linejoin="round"><circle cx="12" cy="9" r="3"/><circle cx="8" cy="17" r="2.4"/><circle cx="16" cy="17" r="2.4"/><path d="M10 11l-2 4 M14 11l2 4"/></g>
<text x="66" y="218" font-family="Inter,system-ui,sans-serif" font-size="9.5" font-weight="700" fill="#18181b">MCP</text>
<rect x="114" y="194" width="74" height="38" rx="9" fill="#ffffff" stroke="#e6e6ea"/>
<rect x="120" y="201" width="24" height="24" rx="6" fill="#f4f4f6" stroke="#e6e6ea"/><g transform="translate(124,205) scale(0.6666666666666666)" fill="none" stroke="#5c5c66" stroke-width="1.5" stroke-linecap="round" stroke-linejoin="round"><path d="M6 15h12a4 4 0 0 0 .5-8A6 6 0 0 0 6 15z"/></g>
<text x="148" y="218" font-family="Inter,system-ui,sans-serif" font-size="9.5" font-weight="700" fill="#18181b">Cloud</text>
<rect x="32" y="242" width="74" height="38" rx="9" fill="#ffffff" stroke="#e6e6ea"/>
<rect x="38" y="249" width="24" height="24" rx="6" fill="#f4f4f6" stroke="#e6e6ea"/><g transform="translate(42,253) scale(0.6666666666666666)" fill="none" stroke="#5c5c66" stroke-width="1.5" stroke-linecap="round" stroke-linejoin="round"><rect x="5" y="6" width="14" height="12" rx="2"/><path d="M7 15l3-3 2 2 3-3 2 4"/></g>
<text x="66" y="266" font-family="Inter,system-ui,sans-serif" font-size="9.5" font-weight="700" fill="#18181b">Image</text>
<rect x="114" y="242" width="74" height="38" rx="9" fill="#ffffff" stroke="#e6e6ea"/>
<rect x="120" y="249" width="24" height="24" rx="6" fill="#f4f4f6" stroke="#e6e6ea"/><g transform="translate(124,253) scale(0.6666666666666666)" fill="none" stroke="#5c5c66" stroke-width="1.5" stroke-linecap="round" stroke-linejoin="round"><path d="M12 4l7 3.5-7 3.5-7-3.5z M5 11l7 3.5 7-3.5 M5 15l7 3.5 7-3.5"/></g>
<text x="148" y="266" font-family="Inter,system-ui,sans-serif" font-size="9.5" font-weight="700" fill="#18181b">IaC</text>
<rect x="32" y="290" width="74" height="38" rx="9" fill="#ffffff" stroke="#e6e6ea"/>
<rect x="38" y="297" width="24" height="24" rx="6" fill="#f4f4f6" stroke="#e6e6ea"/><g transform="translate(42,301) scale(0.6666666666666666)" fill="none" stroke="#5c5c66" stroke-width="1.5" stroke-linecap="round" stroke-linejoin="round"><path d="M6 5h12v14H6z M9 9h8 M9 12h8 M9 15h5"/></g>
<text x="66" y="314" font-family="Inter,system-ui,sans-serif" font-size="9.5" font-weight="700" fill="#18181b">SBOM</text>
<rect x="114" y="290" width="74" height="38" rx="9" fill="#ffffff" stroke="#e6e6ea"/>
<rect x="120" y="297" width="24" height="24" rx="6" fill="#f4f4f6" stroke="#e6e6ea"/><g transform="translate(124,301) scale(0.6666666666666666)" fill="none" stroke="#5c5c66" stroke-width="1.5" stroke-linecap="round" stroke-linejoin="round"><path d="M12 4l7 3.5v7L12 18l-7-3.5v-7z M12 4v14 M5 7.5l14 7"/></g>
<text x="148" y="314" font-family="Inter,system-ui,sans-serif" font-size="9.5" font-weight="700" fill="#18181b">Model</text>
<rect x="32" y="340" width="76" height="34" rx="7" fill="#ffffff" stroke="#e6e6ea"/><g transform="translate(56.0,350.0) scale(0.23333333333333334)"><path d="M15.864 42.616V33.77l6.036 2.057v8.956zm13.178 0V33.77l-6.036 2.057v8.956zm-6.45-11.228l5.664 1.826-5.664 1.923-6.1-2.03zm-13.915-1.13V21.4l6.036 2.056v8.956zm13.18-.001V21.4l-6.036 2.056v8.956zm-6.45-11.23l5.664 1.827-5.664 1.923-6.1-2.03zm7.355 11.23V21.4l6.036 2.056v8.956zm13.178 0V21.4l-6.036 2.056v8.956zm-6.44-11.23l5.664 1.827-5.664 1.923-6.1-2.03zm.458-1.13V9.05l6.036 2.057v8.955zm13.17-.001V9.05l-6.036 2.057v8.955zM36.677 6.67l5.664 1.826-5.664 1.923-6.1-2.03zm7.355 11.227V9.05l6.036 2.057v8.955zm13.168 0V9.05l-6.036 2.057v8.955zM50.76 6.67l5.664 1.826-5.664 1.923-6.1-2.03z" fill="#f90" fill-rule="evenodd"/><path d="M46.998 39.018l-2.028 7.044h-.88l-1.6-5.232-1.448 5.232h-.898l-2.107-7.044h1.1l1.535 5.25 1.46-5.25h.804l1.588 5.266 1.578-5.266h.885zm5.608 4.942l1.02.2a2.87 2.87 0 0 1-1.086 1.495c-.54.395-1.172.592-1.9.592-.96 0-1.738-.338-2.332-1.016s-.9-1.565-.9-2.663c0-1.122.3-2.028.926-2.72a2.98 2.98 0 0 1 2.325-1.037c.92 0 1.658.318 2.218.955s.846 1.588.86 2.856h-5.113c0 1.065.222 1.784.668 2.156s.916.558 1.412.558c.895 0 1.526-.462 1.892-1.387zm-.06-2.144c-.01-.395-.074-.746-.195-1.053s-.325-.568-.613-.784-.633-.324-1.037-.324a1.85 1.85 0 0 0-1.381.586c-.378.4-.6.915-.637 1.575h3.862zm3.17 4.246h-.527v-9.5h1.097v3.64c.5-.913 1.2-1.37 2.073-1.37.806 0 1.482.32 2.027.957s.817 1.564.817 2.778c0 1.047-.27 1.925-.804 2.635s-1.234 1.065-2.092 1.065c-.956 0-1.7-.454-2.2-1.36l-.4 1.165zm.57-2.76c.05.723.273 1.248.665 1.574s.807.5 1.244.5c.557 0 1.006-.242 1.348-.726s.512-1.147.512-1.988c0-.907-.165-1.62-.494-2.14s-.787-.778-1.372-.778c-.46 0-.874.185-1.244.554s-.6.847-.658 1.432v1.57zm7.713.934l1.046-.216c.232.885.968 1.327 2.204 1.327.455 0 .842-.102 1.158-.306a.97.97 0 0 0 .475-.863c0-.55-.403-.9-1.208-1.05l-1.483-.282c-.58-.112-1.043-.33-1.387-.656s-.515-.755-.515-1.3c0-.6.234-1.084.704-1.482s1.1-.596 1.895-.596c1.528 0 2.47.597 2.83 1.792l-1.004.216c-.288-.73-.88-1.097-1.775-1.097-.446 0-.812.1-1.097.274a.86.86 0 0 0-.428.766c0 .518.365.843 1.094.978l1.37.252c1.436.26 2.153.957 2.153 2.088a1.86 1.86 0 0 1-.802 1.568c-.534.398-1.245.598-2.134.598-1.67 0-2.7-.674-3.096-2.02zm11.866-.276l1.02.2c-.185.602-.547 1.1-1.086 1.495s-1.172.592-1.9.592c-.96 0-1.738-.338-2.332-1.016s-.9-1.565-.9-2.663c0-1.122.308-2.028.926-2.72a2.98 2.98 0 0 1 2.325-1.037c.918 0 1.658.318 2.217.955s.846 1.588.86 2.856h-5.112c0 1.065.222 1.784.667 2.156s.916.558 1.413.558c.895 0 1.526-.462 1.892-1.387zm-.06-2.144c-.01-.395-.075-.746-.195-1.053s-.324-.568-.612-.784-.633-.324-1.037-.324a1.85 1.85 0 0 0-1.382.586c-.378.4-.6.915-.636 1.575h3.862zm3.477 4.246h-1.097v-7.044h.96v1.642c.34-.77.68-1.268 1.02-1.495s.7-.342 1.048-.342a4.69 4.69 0 0 1 .432.026v1.046h-.222c-.603 0-1.104.224-1.503.672s-.612 1.037-.64 1.766v3.73zm9.18-7.044l-2.432 7.044h-1.137l-2.513-7.044h1.214l1.955 5.725 1.94-5.725h.973zm2.05-2.468v1.217H89.34V36.55h1.174zm-.026 2.467v7.044H89.4v-7.044h1.097zm5.734 4.578l.987.174c-.14.778-.448 1.387-.926 1.828s-1.075.66-1.8.66c-.97 0-1.7-.36-2.22-1.075s-.763-1.6-.763-2.625c0-1.07.268-1.96.805-2.67s1.267-1.065 2.2-1.065c.766 0 1.38.23 1.843.7s.75 1.05.86 1.778l-.987.188c-.186-1.163-.747-1.744-1.685-1.744a1.55 1.55 0 0 0-1.392.77c-.325.513-.488 1.178-.488 1.996 0 .9.16 1.6.484 2.1a1.53 1.53 0 0 0 1.361.749c.905 0 1.478-.584 1.72-1.753zm7.176.365l1.02.2a2.87 2.87 0 0 1-1.086 1.495c-.54.395-1.172.592-1.9.592-.96 0-1.74-.338-2.333-1.016s-.9-1.565-.9-2.663c0-1.122.3-2.028.926-2.72a2.98 2.98 0 0 1 2.325-1.037c.92 0 1.66.318 2.218.955s.846 1.588.86 2.856h-5.112c0 1.065.222 1.784.668 2.156s.916.558 1.412.558c.895 0 1.526-.462 1.892-1.387zm-.06-2.144c-.01-.395-.074-.746-.195-1.053a1.79 1.79 0 0 0-.612-.784c-.288-.216-.633-.324-1.037-.324a1.84 1.84 0 0 0-1.38.586c-.376.4-.6.915-.637 1.575h3.862zm1.82 2.42l1.046-.216c.232.885.967 1.327 2.204 1.327.455 0 .84-.102 1.158-.306a.97.97 0 0 0 .474-.863c0-.55-.403-.9-1.207-1.05l-1.483-.282c-.58-.112-1.043-.33-1.387-.656s-.515-.755-.515-1.3c0-.6.234-1.084.704-1.482s1.1-.596 1.895-.596c1.528 0 2.47.597 2.83 1.792l-1.004.216c-.288-.73-.88-1.097-1.775-1.097-.446 0-.8.1-1.097.274a.86.86 0 0 0-.428.766c0 .518.365.843 1.094.978l1.37.252c1.436.26 2.153.957 2.153 2.088a1.86 1.86 0 0 1-.802 1.568c-.534.398-1.245.598-2.134.598-1.668 0-2.7-.674-3.095-2.02z" stroke="#000" stroke-width=".213"/><path d="M80.42 23.964v-1.692a.42.42 0 0 1 .43-.43h7.583c.242 0 .437.176.438.427v1.45c-.002.243-.207.56-.57 1.065l-3.927 5.608c1.458-.034 3 .184 4.325.93.3.168.378.416.402.66v1.805c0 .25-.272.537-.558.387-2.334-1.223-5.43-1.357-8.012.014-.264.14-.54-.143-.54-.392V32.08c0-.275.005-.744.282-1.163l4.55-6.53H80.86a.42.42 0 0 1-.439-.425zM53.283 34.532h-2.307c-.22-.014-.395-.18-.412-.4l.001-11.84c0-.237.2-.426.445-.426l2.148-.001c.225.012.405.182.42.398v1.546h.043c.56-1.495 1.615-2.193 3.036-2.193 1.443 0 2.347.698 2.994 2.193.56-1.495 1.83-2.193 3.187-2.193.97 0 2.024.4 2.67 1.296.732.996.582 2.442.582 3.713l-.002 7.472c0 .237-.2.426-.445.426H63.34c-.23-.015-.414-.198-.414-.425V27.83c0-.5.043-1.744-.065-2.218-.172-.797-.7-1.022-1.356-1.022-.56 0-1.142.374-1.38.972s-.215 1.595-.215 2.268v6.276c0 .237-.2.426-.445.426H57.16c-.232-.015-.414-.198-.414-.425l-.002-6.277c0-1.32.215-3.264-1.42-3.264-1.658 0-1.594 1.893-1.594 3.264v6.276c0 .237-.2.426-.445.426zm41.16-12.907c3.397 0 5.234 2.94 5.234 6.678 0 3.613-2.03 6.478-5.234 6.478-3.333 0-5.15-2.94-5.15-6.603 0-3.687 1.838-6.553 5.15-6.553zm.022 2.722c-1.688 0-1.795 2.317-1.795 3.762s-.02 4.23 1.774 4.23c1.774 0 1.86-2.187 1.86-3.707 0-.996-.042-2.193-.34-3.14-.257-.822-.77-1.146-1.496-1.146zm10.128 10.185h-2.298c-.23-.015-.414-.198-.414-.425l-.004-11.845c.02-.217.2-.386.443-.386l2.14-.001a.44.44 0 0 1 .41.332v1.8h.044c.646-1.62 1.55-2.392 3.144-2.392 1.033 0 2.046.374 2.692 1.395.603.947.603 2.54.603 3.688v7.45c-.026.2-.214.373-.442.373h-2.313c-.213-.014-.385-.17-.4-.373v-6.43c0-1.295.15-3.2-1.443-3.2-.56 0-1.077.374-1.335.947-.323.723-.367 1.445-.367 2.243v6.376c-.004.237-.203.426-.45.426zm-29.955-5.655c0 .9.022 1.648-.432 2.447-.367.65-.95 1.05-1.597 1.05-.885 0-1.403-.674-1.403-1.673 0-1.964 1.763-2.322 3.43-2.322v.5zm2.326 5.625c-.153.137-.373.146-.545.054-.766-.637-.903-.93-1.322-1.538-1.266 1.3-2.163 1.677-3.803 1.677-1.942 0-3.453-1.2-3.453-3.596 0-1.873 1.014-3.146 2.46-3.77 1.252-.55 3-.65 4.338-.8v-.3c0-.55.043-1.198-.28-1.673-.28-.425-.82-.6-1.295-.6-.88 0-1.662.45-1.855 1.386-.04.208-.192.413-.4.424l-2.236-.242c-.2-.043-.4-.194-.344-.482.514-2.713 2.964-3.532 5.16-3.532 1.122 0 2.6.3 3.474 1.15 1.123 1.05 1.014 2.447 1.014 3.97v3.594c0 1.08.45 1.555.87 2.138.147.2.18.46-.008.613l-1.77 1.532-.006-.006zm-32.307-5.625c0 .9.022 1.648-.432 2.447-.367.65-.95 1.05-1.597 1.05-.885 0-1.403-.674-1.403-1.673 0-1.964 1.762-2.322 3.43-2.322v.5zm2.326 5.625c-.153.137-.373.146-.545.054-.766-.637-.904-.93-1.322-1.538-1.266 1.3-2.163 1.677-3.803 1.677-1.942 0-3.453-1.2-3.453-3.596 0-1.873 1.014-3.146 2.46-3.77 1.252-.55 3-.65 4.338-.8v-.3c0-.55.043-1.198-.28-1.673-.28-.425-.82-.6-1.295-.6-.88 0-1.662.45-1.855 1.386-.04.208-.2.413-.4.424l-2.236-.242c-.2-.043-.4-.194-.344-.482.513-2.713 2.963-3.532 5.16-3.532 1.122 0 2.6.3 3.475 1.15 1.122 1.05 1.014 2.447 1.014 3.97v3.594c0 1.08.45 1.555.87 2.138.147.2.18.46-.007.613L47 34.507l-.006-.006z" fill-rule="evenodd"/></g><rect x="114" y="340" width="76" height="34" rx="7" fill="#ffffff" stroke="#e6e6ea"/><g transform="translate(138.0,350.0) scale(0.23333333333333334)"><g transform="matrix(.229053 0 0 .229053 -.144648 10.46444)" fill="#035bda"><path d="M266.244 82.663h-7.824V52.117c-.04-3.022.074-6.045.34-9.056a16.68 16.68 0 0 1-1.366 4.358l-14.33 35.528h-5.456l-14.353-35.173-1.366-4.737c.34 2.013.34 5.03.34 9.395v30.586h-7.508V35.703h11.258l12.632 31.533 2.045 5.37a35.53 35.53 0 0 1 2.045-5.7l12.964-31.533h10.92zm14.67-40.928a4.42 4.42 0 0 1-3.411-1.342c-.916-.726-1.425-1.85-1.366-3.016-.13-1.18.393-2.336 1.366-3.016a6.12 6.12 0 0 1 3.411-1.342 4.42 4.42 0 0 1 3.411 1.342c.916.726 1.425 1.85 1.366 3.016.13 1.18-.393 2.336-1.366 3.016a4.42 4.42 0 0 1-3.411 1.342zm3.75 40.928h-7.848V48.785h7.848zm35.132-1.333c-2.732 1.674-6.142 2.37-9.893 2.37-5.116 0-9.214-1.674-12.285-4.698s-4.737-7.042-4.737-12.08c0-5.7 1.705-10.066 5.116-13.422s7.848-5.03 13.643-5.03a20.88 20.88 0 0 1 8.187 1.674v7.027a13.67 13.67 0 0 0-7.508-2.684c-3.4 0-6.142 1.003-8.187 3.355a12.41 12.41 0 0 0-3.071 8.685c0 3.355 1.026 6.37 3.07 8.385 2.108 2.014 4.934 3.1 7.848 3.016 2.892-.038 5.675-1.108 7.848-3.016v6.42zm27.634-25.155c-1.237-.725-2.658-1.073-4.1-1.003-2.37 0-4.1 1.003-5.803 3.016s-2.37 4.737-2.37 8.385V82.68h-7.848V48.785h7.848v7.042a13.52 13.52 0 0 1 3.41-5.7c1.492-1.347 3.446-2.068 5.456-2.013a6.91 6.91 0 0 1 3.071.671zm20.8 27.522c-5.456 0-9.553-1.674-12.632-4.698s-4.737-7.382-4.737-12.4c0-5.7 1.705-10.066 5.116-13.422s7.848-4.737 13.303-4.737 9.553 1.674 12.632 4.737 4.398 7.358 4.398 13.058c.144 4.805-1.55 9.484-4.737 13.082-3.813 2.95-8.523 4.5-13.343 4.4zm.34-29.52q-4.603 0-7.16 3.016c-1.705 2.013-2.732 5.03-2.732 8.685s1.026 6.37 2.732 8.385 4.1 3.016 7.16 3.016 5.456-1.003 7.16-3.016 2.37-4.698 2.37-8.685c0-3.687-.68-6.7-2.37-8.685a9.86 9.86 0 0 0-7.161-2.684zm23.204 27.483V74.6c3.07 2.013 6.142 3.355 9.553 3.355q7.16 0 7.16-4.026a4.71 4.71 0 0 0-.68-2.013c-.406-.622-1.005-1.093-1.705-1.342-.763-.394-1.555-.73-2.37-1.003l-3.07-1.003a40.31 40.31 0 0 1-3.75-1.674 18.9 18.9 0 0 1-2.732-2.013 7.29 7.29 0 0 1-1.705-2.684 9.78 9.78 0 0 1-.679-3.355 9.16 9.16 0 0 1 1.026-4.358 6.64 6.64 0 0 1 3.071-3.016c1.366-1.003 2.732-1.342 4.437-2.013a26.75 26.75 0 0 1 5.116-.671 22.78 22.78 0 0 1 8.527 1.342v6.72a13.77 13.77 0 0 0-8.187-2.369 6.76 6.76 0 0 0-2.732.332c-.68.332-1.366.332-2.045.67-.607.26-1.094.74-1.366 1.342-.274.513-.392 1.095-.34 1.674a4.19 4.19 0 0 0 .339 2.013 2.63 2.63 0 0 0 1.366 1.342c.763.394 1.555.73 2.37 1.003 1.026.332 1.705.67 3.07 1.003a21.08 21.08 0 0 0 4.082 1.674c1.366.332 2.045 1.342 3.07 2.013a18.64 18.64 0 0 1 2.045 2.684 11.89 11.89 0 0 1 .68 3.687c0 1.674-.34 3.355-1.366 4.358a8.73 8.73 0 0 1-3.063 3.048 33.58 33.58 0 0 1-4.737 2.013c-5.165 1.304-10.626.707-15.388-1.682zm47.433 2.037c-5.456 0-9.553-1.674-12.632-4.698s-4.737-7.382-4.737-12.4c0-5.7 1.705-10.066 5.116-13.422s7.848-4.737 13.303-4.737 9.553 1.674 12.632 4.737 4.437 7.382 4.437 13.082c.144 4.805-1.55 9.484-4.737 13.082a21.75 21.75 0 0 1-13.422 4.366zm.34-29.52q-4.603 0-7.16 3.016c-1.705 2.013-2.732 5.03-2.732 8.685s1.026 6.37 2.732 8.385 4.1 3.016 7.16 3.016 5.456-1.003 7.16-3.016 2.37-4.698 2.37-8.685c0-3.687-.68-6.7-2.37-8.685a9.86 9.86 0 0 0-7.177-2.74zm44.663-15.12a6.97 6.97 0 0 0-3.75-1.003c-3.75 0-5.803 2.013-5.803 6.37v4.7h7.848v6.04h-7.848v27.862h-7.816v-27.87h-5.803v-6.04h5.803v-5.37c0-3.687 1.026-6.37 3.4-8.385a14.68 14.68 0 0 1 13.303-2.37v6.04h.655zm22.534 43.273q-2.045 1.003-6.142 1.003c-6.82 0-9.893-3.016-9.893-9.395V54.825h-5.803v-6.04h5.803v-7.72l7.848-2.013v10.066h8.187v6.04h-8.187v16.8a7.51 7.51 0 0 0 1.026 4.358c.68 1.003 2.045 1.342 3.75 1.342a5.8 5.8 0 0 0 3.4-1.042v5.7zm-244.204 70h-8.874l-4.437-12.072h-19.106l-4.1 12.08h-8.866l18.08-47.3h8.85zm-15.356-18.45l-6.82-18.782a21.09 21.09 0 0 1-.679-3.016 21.09 21.09 0 0 1-.679 3.016l-6.482 18.782zm46.44-12.097l-18.427 24.475h18.42v6.04h-29.37v-2.96l19.114-24.846h-17.053v-6.04h27.633v3.332zm36.8 30.547h-7.848v-5.36a11.44 11.44 0 0 1-10.579 6.04c-8.187 0-12.285-4.698-12.285-14.424V118.45h7.848v19.454q0 9.056 7.16 9.056a7.55 7.55 0 0 0 5.803-2.369 10.69 10.69 0 0 0 2.369-6.711v-19.43h7.84zm30.024-26.497c-1.237-.725-2.658-1.073-4.1-1.003-2.37 0-4.1 1.003-5.803 3.016s-2.37 4.737-2.37 8.385v16.106h-7.848V118.45h7.848v7.042a13.52 13.52 0 0 1 3.41-5.7c1.478-1.334 3.4-2.054 5.4-2.013a6.91 6.91 0 0 1 3.071.671zm34.794 11.74h-23.535c0 3.016 1.026 5.7 3.07 7.382 1.705 1.674 4.437 2.684 7.848 2.684a16.28 16.28 0 0 0 10.264-3.355v6.04q-4.642 3.04-12.316 3.04a16.06 16.06 0 0 1-11.937-4.737c-3.07-3.016-4.437-7.382-4.437-13.082a17.89 17.89 0 0 1 4.737-12.751 15.61 15.61 0 0 1 11.937-5.037c4.737 0 8.187 1.342 10.92 4.358s3.75 7.042 3.75 12.4zm-7.508-5.37c0-2.684-.68-5.03-2.045-6.37a6.44 6.44 0 0 0-5.456-2.37 7.55 7.55 0 0 0-5.803 2.369c-1.705 1.674-2.37 3.687-2.732 6.37z"/><path d="M125.193 37.43l-25.44 51.237 44.8 51.912-83.13 9.437 128.994 1.35zm-5.017-20.226L61.77 66.082l-43.357 73.15 36.907-3.7z" fill-rule="evenodd"/></g></g><rect x="32" y="379" width="76" height="34" rx="7" fill="#ffffff" stroke="#e6e6ea"/><g transform="translate(56.0,389.0) scale(0.23333333333333334)"><path d="M64.87 11.572l1.144.02 3.108-3.108.15-1.317c-2.47-2.197-5.72-3.534-9.277-3.534-6.44 0-11.876 4.382-13.486 10.318.34-.237 1.065-.06 1.065-.06l6.212-1.022s.32-.53.48-.497a7.76 7.76 0 0 1 10.605-.8z" fill="#ea4335"/><path d="M73.5 13.962a13.99 13.99 0 0 0-4.216-6.796l-4.402 4.402a7.75 7.75 0 0 1 2.895 6.039v.777c2.142 0 3.88 1.743 3.88 3.88s-1.743 3.88-3.88 3.88h-7.762l-.777.78v4.658l.777.773h7.762A10.11 10.11 0 0 0 77.86 22.265c-.004-3.436-1.736-6.48-4.37-8.303z" fill="#4285f4"/><path d="M52.234 32.362h7.76V26.15h-7.76a3.84 3.84 0 0 1-1.597-.347l-1.12.343-3.108 3.108-.272 1.05a9.96 9.96 0 0 0 6.098 2.06z" fill="#34a853"/><path d="M52.234 12.175A10.11 10.11 0 0 0 42.14 22.269a10.08 10.08 0 0 0 4 8.04l4.5-4.5a3.88 3.88 0 0 1-2.288-3.538c0-2.142 1.743-3.88 3.88-3.88a3.89 3.89 0 0 1 3.538 2.288l4.5-4.5c-1.846-2.43-4.76-4-8.04-4z" fill="#fbbc05"/><path d="M12 51.937c-2.12 0-3.94-.75-5.474-2.25s-2.3-3.304-2.3-5.408.765-3.908 2.3-5.408S9.883 36.62 12 36.62a7.32 7.32 0 0 1 5.249 2.11l-1.477 1.477a5.32 5.32 0 0 0-3.773-1.495c-1.53 0-2.83.54-3.896 1.627a5.41 5.41 0 0 0-1.597 3.941c0 1.546.53 2.857 1.597 3.94a5.25 5.25 0 0 0 3.896 1.627c1.558 0 2.845-.5 3.87-1.534.6-.6 1-1.5 1.14-2.635h-5.006v-2.092h7.044c.075.372.1.8.1 1.3 0 2.056-.603 3.686-1.813 4.895-1.372 1.435-3.15 2.15-5.345 2.15zm16.37-1.4c-.96.94-2.13 1.4-3.512 1.4s-2.554-.47-3.512-1.4-1.438-2.113-1.438-3.52.48-2.58 1.438-3.52 2.13-1.4 3.512-1.4 2.554.47 3.512 1.4 1.438 2.116 1.438 3.52-.48 2.58-1.438 3.52zm-5.474-1.38a2.63 2.63 0 0 0 1.963.849c.76 0 1.414-.282 1.963-.85s.822-1.28.822-2.14c0-.87-.27-1.588-.813-2.15s-1.198-.84-1.972-.84a2.64 2.64 0 0 0-1.972.84c-.543.56-.813 1.276-.813 2.15 0 .858.273 1.573.822 2.14zm16.273 1.38c-.96.94-2.13 1.4-3.512 1.4s-2.554-.47-3.512-1.4-1.438-2.113-1.438-3.52.48-2.58 1.438-3.52 2.13-1.4 3.512-1.4 2.554.47 3.512 1.4 1.438 2.116 1.438 3.52-.48 2.58-1.438 3.52zm-5.474-1.38a2.63 2.63 0 0 0 1.963.849c.76 0 1.414-.282 1.963-.85s.822-1.28.822-2.14c0-.87-.27-1.588-.813-2.15s-1.198-.84-1.972-.84a2.64 2.64 0 0 0-1.972.84c-.543.56-.813 1.276-.813 2.15 0 .858.273 1.573.822 2.14zm12.573 7.22c-1.095 0-2.017-.294-2.764-.88s-1.282-1.264-1.606-2.038l1.888-.783c.198.474.5.885.933 1.234s.94.522 1.552.522c.822 0 1.468-.25 1.933-.747s.7-1.216.7-2.15v-.7h-.075c-.6.747-1.477 1.122-2.596 1.122-1.258 0-2.36-.48-3.307-1.438a4.76 4.76 0 0 1-1.42-3.476 4.82 4.82 0 0 1 1.42-3.503c.945-.963 2.05-1.447 3.307-1.447.56 0 1.068.105 1.522.318s.813.474 1.074.783h.075V42.4h2.056v8.857c0 1.72-.438 3.004-1.318 3.86-.88.85-2.002 1.28-3.373 1.28zm.15-6.372a2.41 2.41 0 0 0 1.879-.849c.504-.567.756-1.273.756-2.122 0-.858-.252-1.576-.756-2.15a2.4 2.4 0 0 0-1.879-.858c-.76 0-1.408.288-1.942.858s-.804 1.288-.804 2.15c0 .846.267 1.555.804 2.122s1.183.85 1.942.85zM54.62 37.14v14.5h-2.167v-14.5zm5.94 14.796c-1.396 0-2.56-.474-3.494-1.42s-1.402-2.116-1.402-3.512c0-1.444.45-2.63 1.354-3.55a4.45 4.45 0 0 1 3.298-1.384c.597 0 1.153.108 1.663.327a3.92 3.92 0 0 1 1.27.84 5.84 5.84 0 0 1 .804.999 6.12 6.12 0 0 1 .486.972l.225.56L58.17 48.5c.5.996 1.3 1.495 2.392 1.495.996 0 1.807-.453 2.428-1.363l1.68 1.122c-.375.56-.903 1.065-1.588 1.513s-1.528.67-2.524.67zm-2.746-5.08l4.4-1.83c-.126-.312-.354-.564-.7-.756a2.26 2.26 0 0 0-1.14-.288c-.636 0-1.23.26-1.783.783s-.82 1.222-.795 2.092zm18.33 5.08c-1.97 0-3.62-.666-4.952-2s-2-2.995-2-4.988.666-3.656 2-4.988 2.983-2 4.952-2c2.017 0 3.656.73 4.913 2.185l-1.195 1.16c-.9-1.134-2.15-1.7-3.72-1.7-1.46 0-2.686.492-3.7 1.477s-1.504 2.272-1.504 3.866.5 2.884 1.504 3.87 2.233 1.477 3.7 1.477c1.606 0 2.977-.648 4.1-1.942l1.195 1.195a6.51 6.51 0 0 1-2.3 1.747 7.02 7.02 0 0 1-3.004.642zm8.556-.296h-1.72V38.263h1.72zm2.803-8.06c.885-.927 2-1.393 3.382-1.393s2.497.465 3.382 1.393 1.327 2.1 1.327 3.485-.44 2.557-1.327 3.485-2 1.393-3.382 1.393-2.497-.465-3.382-1.393-1.327-2.1-1.327-3.485.44-2.557 1.327-3.485zm1.28 5.883c.6.603 1.294.906 2.1.906s1.5-.303 2.1-.906.888-1.405.888-2.4-.297-1.798-.888-2.4-1.294-.906-2.1-.906-1.5.303-2.1.906-.888 1.405-.888 2.4.297 1.798.888 2.4zm16.32 2.177h-1.645v-1.27h-.075c-.26.435-.66.807-1.195 1.1s-1.1.46-1.7.46c-1.147 0-2.014-.348-2.605-1.047s-.888-1.633-.888-2.803v-5.606h1.72v5.324c0 1.708.753 2.56 2.26 2.56a2.1 2.1 0 0 0 1.738-.858 3.13 3.13 0 0 0 .672-1.981v-5.045h1.72v9.157zm5.828.297c-1.183 0-2.206-.468-3.064-1.402s-1.288-2.092-1.288-3.476.43-2.542 1.288-3.476 1.882-1.402 3.064-1.402c.696 0 1.324.15 1.88.447s.97.672 1.243 1.122h.075l-.075-1.27v-4.22h1.72v13.38h-1.645v-1.27h-.075c-.273.447-.687.822-1.243 1.122-.555.294-1.183.444-1.88.444zm.28-1.57a2.74 2.74 0 0 0 2.065-.897c.567-.597.85-1.402.85-2.4s-.282-1.813-.85-2.4a2.74 2.74 0 0 0-2.065-.897c-.798 0-1.483.303-2.056.906s-.858 1.405-.858 2.4.285 1.798.858 2.4a2.73 2.73 0 0 0 2.056.906z" fill="#5f6368"/></g><rect x="114" y="379" width="76" height="34" rx="7" fill="#ffffff" stroke="#e6e6ea"/><g transform="translate(138.0,389.0) scale(0.23333333333333334)"><g fill="#29B5E8"><path d="M81.492 28.285l-.084-.1v.1zm-.084-1l.084-.088h-.084zm-8.548 3.887l-.03.075.045.114.047-.114-.033-.08h-.028zm9.56-2.897v-.1l-.084.1zm0-.98v-.088h-.084zm-11.957 7.52l.025.001.023-.057.01-.03-.043-.12-.048.12zm4.82 0l.024-.001.006-.015.026-.074-.05-.12-.042.12zm26.885-3.37l-.05-.063-.006.12zm-2.416 2.502V33.9l-.025.063zm1.628-1.813l-.006.006.055.068.06-.063-.005-.006zm-1.713.466h.026l.06-.06v-.123l-.085.086zm-18.175-4.325v-.1h-.084z"/><path d="M75.297 34.845l.01-.033-.024.001zm-4.8-.03l-.025-.001.01.033zm11.933-7.52l-.084-.088v.088zm18.955 4.844l.004-.004zm.004-.004l.103.005-.05-.06zm-1.696.485l-.026-.01v.037zm-17.357-4.335l.084-.1h-.084zm-.844-1v-.088l-.084.088zm18.2 5.326l.05-.05z"/><path d="M75.313 34.797l.027-.074zm31.855-3.653l.004-.017a3.41 3.41 0 0 1 3.285-2.827c1.616.046 2.97 1.232 3.233 2.827l.004.016.013.072h-6.552l.014-.07zm-.062 1.016l-.005-.083h7.1c.1.005.218-.036.298-.112s.125-.18.126-.292v-.055a4.19 4.19 0 0 0-6.467-3.526 4.19 4.19 0 0 0-1.905 3.838 4.35 4.35 0 0 0 4.172 4.473h.4a4.29 4.29 0 0 0 3.497-2.233.48.48 0 0 0-.142-.623c-.094-.058-.207-.075-.314-.048s-.198.098-.25.194c-.55 1.05-1.606 1.743-2.8 1.83h-.408a3.46 3.46 0 0 1-3.322-3.358l-.001-.005m-25.022-7.9c-.435.605-.637 1.346-.57 2.087v.958H80.35a.42.42 0 0 0-.306.12c-.082.08-.128.2-.128.303a.47.47 0 0 0 .434.48h1.142v7.784a.42.42 0 0 0 .64.389.42.42 0 0 0 .202-.389v-7.784h1.222a.46.46 0 0 0 .435-.479c.002-.115-.044-.225-.126-.305a.41.41 0 0 0-.3-.118h-1.222v-.958a2.43 2.43 0 0 1 .353-1.495 1.33 1.33 0 0 1 1.088-.339c.017 0 .034-.001.05-.004.02.003.038.004.057.004h.137a.45.45 0 0 0 .435-.451.45.45 0 0 0-.435-.451h-.137a.52.52 0 0 0-.055.003.49.49 0 0 0-.054-.003 2.14 2.14 0 0 0-1.712.648m-37.338 7.02c-1.02-.354-2.12-.62-2.12-1.485 0-1.096 1.3-1.547 1.996-1.547 1.708 0 2.076 1.4 2.554.974s-1.212-1.792-2.43-1.792c-.75-.032-1.5.17-2.12.576a1.99 1.99 0 0 0-.935 1.79c-.05 1.837 2.122 2.147 3.055 2.472s2.017.705 2.027 1.616c.012 1.26-1.484 1.65-2.155 1.65-1.914 0-2.43-1.123-2.8-.77s.104.794.986 1.226a4.62 4.62 0 0 0 1.805.424 3.41 3.41 0 0 0 2.155-.659 2.36 2.36 0 0 0 .935-1.87c0-1.686-1.458-2.08-2.96-2.603"/><path d="M92.753 35.524a3.45 3.45 0 0 1-3.25-3.612 3.27 3.27 0 1 1 6.499 0 3.44 3.44 0 0 1-3.249 3.612m3.25-6.343l-.047-.066-.03-.04a3.97 3.97 0 0 0-3.172-1.653c-2.368.116-4.198 2.122-4.098 4.5-.1 2.37 1.73 4.375 4.098 4.5 1.262-.023 2.44-.642 3.172-1.67l.032-.043.046-.064v1.337c-.006.155.074.3.207.38a.42.42 0 0 0 .433 0c.133-.08.213-.225.207-.38V27.86c.006-.155-.074-.3-.207-.38a.42.42 0 0 0-.433 0c-.133.08-.213.225-.207.38zm3.7 3.44l-.026.026v-8.634a.43.43 0 0 0-.652-.382c-.135.08-.217.225-.214.382v11.952a.43.43 0 0 0 .652.382c.135-.08.217-.225.214-.382V33.9l1.767-1.833.05.062.005.005 3.267 4.094c.073.113.202.177.336.165a.44.44 0 0 0 .282-.092c.178-.172.193-.452.035-.642l-3.355-4.235 3.337-3.352a.43.43 0 0 0 0-.623c-.075-.087-.185-.138-.3-.138s-.225.05-.3.138l-5.047 5.108zm-13.15-9.05a.44.44 0 0 0-.424.44v11.95a.43.43 0 0 0 .652.382c.135-.08.217-.226.214-.382V24c-.001-.243-.2-.44-.442-.44m-11.24 11.225l-.006.015-.01.033-.012-.032-.035-.088-1.947-4.8a.47.47 0 0 0-.424-.275c-.177.007-.334.113-.407.275l-1.995 4.93-.01-.033-2.514-7.1a.41.41 0 0 0-.548-.238.45.45 0 0 0-.21.568l2.896 8.085a.33.33 0 0 0 .176.202.09.09 0 0 0 .07.036.5.5 0 0 0 .159.036c.168-.01.314-.117.37-.274a.07.07 0 0 1 .017-.037l1.996-4.95 2.02 4.95a.46.46 0 0 0 .353.293h.053c.1.001.18-.032.248-.092s.127-.133.16-.22l2.88-8.048c.087-.22-.015-.47-.23-.568-.217-.085-.46.022-.547.238l-2.465 7zm-25.05-6.916c.01-.154-.068-.3-.2-.38s-.297-.08-.43 0a.41.41 0 0 0-.2.38v8.194c.01.01.016.022.018.036-.003.02.004.04.017.056a.47.47 0 0 0 .283.238h.105a.38.38 0 0 0 .32-.165.42.42 0 0 0 .088-.202v-4.95c-.002-1.497 1.188-2.724 2.684-2.768a2.72 2.72 0 0 1 2.667 2.767v4.875c-.006.155.074.3.207.38a.42.42 0 0 0 .433 0c.133-.08.213-.225.207-.38v-4.875c.03-1.976-1.54-3.605-3.515-3.648a3.46 3.46 0 0 0-2.684 1.302zm11.854 7.643a3.46 3.46 0 0 1-3.249-3.611 3.27 3.27 0 1 1 6.499 0 3.46 3.46 0 0 1-3.249 3.611m0-8.102a4.34 4.34 0 0 0-4.098 4.491c-.143 1.554.606 3.054 1.933 3.875s3.004.82 4.33 0 2.075-2.322 1.933-3.875a4.34 4.34 0 0 0-4.098-4.5M9.734 21.576l6.56 3.934c.748.45 1.708.324 2.315-.303a2.03 2.03 0 0 0 .62-1.467v-7.885a1.92 1.92 0 0 0-2.902-1.725 1.92 1.92 0 0 0-.938 1.725v4.487l-3.726-2.234a1.89 1.89 0 0 0-2.634.733c-.533.954-.222 2.158.706 2.735m15.77 3.924l6.56-3.934c.93-.577 1.24-1.782.706-2.736a1.89 1.89 0 0 0-2.633-.732l-3.677 2.204v-4.458a1.92 1.92 0 0 0-2.902-1.725 1.92 1.92 0 0 0-.938 1.725v7.73c-.04.414.047.83.25 1.194a1.89 1.89 0 0 0 2.634.733m-5.84 4.483a.57.57 0 0 1 .137-.343l.767-.798a.55.55 0 0 1 .332-.142h.03a.53.53 0 0 1 .331.142l.767.798a.57.57 0 0 1 .137.343v.03a.57.57 0 0 1-.137.345l-.767.796a.55.55 0 0 1-.33.143h-.03a.53.53 0 0 1-.332-.143l-.767-.796c-.083-.097-.13-.218-.137-.345zm-2.322-.328v.688a.78.78 0 0 0 .187.469l2.603 2.702a.72.72 0 0 0 .452.195h.662a.72.72 0 0 0 .452-.195l2.603-2.702c.113-.13.18-.296.187-.47v-.688a.78.78 0 0 0-.187-.47l-2.603-2.7a.72.72 0 0 0-.452-.195h-.662a.72.72 0 0 0-.452.195l-2.603 2.702c-.113.13-.18.296-.187.47M6.34 27.8l3.715 2.228-3.715 2.227c-.928.577-1.24 1.782-.706 2.736a1.89 1.89 0 0 0 2.634.732l6.56-3.934a2.09 2.09 0 0 0 0-3.522l-6.56-3.935a1.89 1.89 0 0 0-2.634.733c-.533.954-.222 2.158.706 2.735m19.668 2.226a2.02 2.02 0 0 0 .964 1.754l6.563 3.934a1.89 1.89 0 0 0 2.633-.732c.534-.954.223-2.16-.706-2.736l-3.715-2.227 3.715-2.228c.93-.576 1.24-1.78.706-2.735a1.89 1.89 0 0 0-2.633-.733l-6.563 3.935a2.02 2.02 0 0 0-.964 1.769M17.612 34.3c-.453-.088-.922-.004-1.317.234l-6.56 3.935c-.928.577-1.24 1.78-.706 2.735a1.89 1.89 0 0 0 2.634.732l3.726-2.234v4.453a1.92 1.92 0 0 0 2.902 1.725 1.92 1.92 0 0 0 .938-1.725V36.26a1.97 1.97 0 0 0-1.616-1.969m14.455 4.17l-6.56-3.934a1.89 1.89 0 0 0-2.634.732 2.06 2.06 0 0 0-.249 1.195v7.692a1.92 1.92 0 0 0 2.902 1.725 1.92 1.92 0 0 0 .938-1.725v-4.422l3.676 2.204a1.89 1.89 0 0 0 2.634-.733c.533-.954.222-2.158-.706-2.735"/></g></g>
<rect x="99" y="421" width="24" height="24" rx="6" fill="#f4f4f6" stroke="#e6e6ea"/><g transform="translate(103,425) scale(0.6666666666666666)" fill="none" stroke="#6d28d9" stroke-width="1.5" stroke-linecap="round" stroke-linejoin="round"><rect x="7" y="11" width="10" height="8" rx="2"/><path d="M9 11V8a3 3 0 0 1 6 0v3"/></g>
<text x="111" y="455" text-anchor="middle" font-family="Inter,system-ui,sans-serif" font-size="8.5" font-weight="600" fill="#9a9aa4">no writes · no secret values</text>
<circle cx="248" cy="158" r="10" fill="#ffffff" stroke="#fbbf24" stroke-width="1.4"/>
<text x="248" y="162" text-anchor="middle" font-family="Inter,system-ui,sans-serif" font-size="8" font-weight="800" fill="#fbbf24">1</text>
<rect x="268" y="146" width="24" height="24" rx="6" fill="#f4f4f6" stroke="#e6e6ea"/><g transform="translate(272,150) scale(0.6666666666666666)" fill="none" stroke="#5c5c66" stroke-width="1.5" stroke-linecap="round" stroke-linejoin="round"><circle cx="10" cy="10" r="6"/><path d="M15 15l4 4"/></g>
<text x="296" y="162" font-family="Inter,system-ui,sans-serif" font-size="10" font-weight="700" fill="#18181b">Discover</text>
<path d="M248 170 V176" stroke="#ececf0" stroke-width="1.4" stroke-linecap="round"/>
<circle cx="248" cy="204" r="10" fill="#ffffff" stroke="#fbbf24" stroke-width="1.4"/>
<text x="248" y="208" text-anchor="middle" font-family="Inter,system-ui,sans-serif" font-size="8" font-weight="800" fill="#fbbf24">2</text>
<rect x="268" y="192" width="24" height="24" rx="6" fill="#f4f4f6" stroke="#e6e6ea"/><g transform="translate(272,196) scale(0.6666666666666666)" fill="none" stroke="#5c5c66" stroke-width="1.5" stroke-linecap="round" stroke-linejoin="round"><path d="M12 3l8 4.5v9L12 21l-8-4.5v-9z M12 3v9 M4 7.5l16 9"/></g>
<text x="296" y="208" font-family="Inter,system-ui,sans-serif" font-size="10" font-weight="700" fill="#18181b">Extract</text>
<path d="M248 216 V222" stroke="#ececf0" stroke-width="1.4" stroke-linecap="round"/>
<circle cx="248" cy="250" r="10" fill="#ffffff" stroke="#fbbf24" stroke-width="1.4"/>
<text x="248" y="254" text-anchor="middle" font-family="Inter,system-ui,sans-serif" font-size="8" font-weight="800" fill="#fbbf24">3</text>
<rect x="268" y="238" width="24" height="24" rx="6" fill="#f4f4f6" stroke="#e6e6ea"/><g transform="translate(272,242) scale(0.6666666666666666)" fill="none" stroke="#5c5c66" stroke-width="1.5" stroke-linecap="round" stroke-linejoin="round"><path d="M8 10h8M6 14h12M9 6l-2 2M15 6l2 2M9 18l-2 2M15 18l2 2"/><circle cx="12" cy="12" r="4"/></g>
<text x="296" y="254" font-family="Inter,system-ui,sans-serif" font-size="10" font-weight="700" fill="#18181b">Scan</text>
<path d="M248 262 V268" stroke="#ececf0" stroke-width="1.4" stroke-linecap="round"/>
<circle cx="248" cy="296" r="10" fill="#ffffff" stroke="#fbbf24" stroke-width="1.4"/>
<text x="248" y="300" text-anchor="middle" font-family="Inter,system-ui,sans-serif" font-size="8" font-weight="800" fill="#fbbf24">4</text>
<rect x="268" y="284" width="24" height="24" rx="6" fill="#f4f4f6" stroke="#e6e6ea"/><g transform="translate(272,288) scale(0.6666666666666666)" fill="none" stroke="#5c5c66" stroke-width="1.5" stroke-linecap="round" stroke-linejoin="round"><path d="M13 3L5 14h6l-1 7 8-11h-6z"/></g>
<text x="296" y="300" font-family="Inter,system-ui,sans-serif" font-size="10" font-weight="700" fill="#18181b">Enrich</text>
<path d="M248 308 V314" stroke="#ececf0" stroke-width="1.4" stroke-linecap="round"/>
<circle cx="248" cy="342" r="10" fill="#ffffff" stroke="#fbbf24" stroke-width="1.4"/>
<text x="248" y="346" text-anchor="middle" font-family="Inter,system-ui,sans-serif" font-size="8" font-weight="800" fill="#fbbf24">5</text>
<rect x="268" y="330" width="24" height="24" rx="6" fill="#f4f4f6" stroke="#e6e6ea"/><g transform="translate(272,334) scale(0.6666666666666666)" fill="none" stroke="#5c5c66" stroke-width="1.5" stroke-linecap="round" stroke-linejoin="round"><path d="M12 3l8 3v6c0 5-3.5 8-8 9-4.5-1-8-4-8-9V6z"/><path d="M9 12l2 2 4-4"/></g>
<text x="296" y="346" font-family="Inter,system-ui,sans-serif" font-size="10" font-weight="700" fill="#18181b">Analyze</text>
<path d="M248 354 V360" stroke="#ececf0" stroke-width="1.4" stroke-linecap="round"/>
<circle cx="248" cy="388" r="10" fill="#ffffff" stroke="#fbbf24" stroke-width="1.4"/>
<text x="248" y="392" text-anchor="middle" font-family="Inter,system-ui,sans-serif" font-size="8" font-weight="800" fill="#fbbf24">6</text>
<rect x="268" y="376" width="24" height="24" rx="6" fill="#f4f4f6" stroke="#e6e6ea"/><g transform="translate(272,380) scale(0.6666666666666666)" fill="none" stroke="#5c5c66" stroke-width="1.5" stroke-linecap="round" stroke-linejoin="round"><path d="M7 4h7l4 4v12H7z M14 4v4h4"/></g>
<text x="296" y="392" font-family="Inter,system-ui,sans-serif" font-size="10" font-weight="700" fill="#18181b">Report</text>
<rect x="212" y="418" width="30" height="18" rx="5" fill="#f4f4f6" stroke="#e6e6ea"/><text x="227.0" y="430" text-anchor="middle" font-family="ui-monospace,monospace" font-size="7" font-weight="700" fill="#fbbf24">OSV</text>
<rect x="246" y="418" width="30" height="18" rx="5" fill="#f4f4f6" stroke="#e6e6ea"/><text x="261.0" y="430" text-anchor="middle" font-family="ui-monospace,monospace" font-size="7" font-weight="700" fill="#fbbf24">GHSA</text>
<rect x="280" y="418" width="30" height="18" rx="5" fill="#f4f4f6" stroke="#e6e6ea"/><text x="295.0" y="430" text-anchor="middle" font-family="ui-monospace,monospace" font-size="7" font-weight="700" fill="#fbbf24">NVD</text>
<rect x="314" y="418" width="30" height="18" rx="5" fill="#f4f4f6" stroke="#e6e6ea"/><text x="329.0" y="430" text-anchor="middle" font-family="ui-monospace,monospace" font-size="7" font-weight="700" fill="#fbbf24">KEV</text>
<rect x="348" y="418" width="30" height="18" rx="5" fill="#f4f4f6" stroke="#e6e6ea"/><text x="363.0" y="430" text-anchor="middle" font-family="ui-monospace,monospace" font-size="7" font-weight="700" fill="#fbbf24">EPSS</text>
<circle cx="479" cy="302" r="64" fill="url(#core-glow)"/>
<line x1="479" y1="302" x2="419" y2="306" stroke="#ececf0" stroke-width="1.3" opacity="0.75"/>
<line x1="479" y1="302" x2="539" y2="306" stroke="#ececf0" stroke-width="1.3" opacity="0.75"/>
<line x1="479" y1="302" x2="443" y2="362" stroke="#ececf0" stroke-width="1.3" opacity="0.75"/>
<line x1="479" y1="302" x2="515" y2="362" stroke="#ececf0" stroke-width="1.3" opacity="0.75"/>
<rect x="445" y="210" width="68" height="68" rx="13" fill="#f5f3ff" stroke="#c4b5fd" stroke-width="2"/><g transform="translate(462,224) scale(1.4166666666666667)" fill="none" stroke="#6d28d9" stroke-width="2.0" stroke-linecap="round" stroke-linejoin="round"><path d="M12 3l8 3v6.5c0 4.5-3.2 7.8-8 9.5-4.8-1.7-8-5-8-9.5V6z"/><path d="M12 9v4"/><path d="M12 16.5h.01"/></g><text x="479" y="271" text-anchor="middle" font-family="Inter,system-ui,sans-serif" font-size="9" font-weight="800" fill="#7c3aed">Finding</text>
<rect x="391" y="278" width="56" height="56" rx="11" fill="#ffffff" stroke="#e6e6ea" stroke-width="1.4"/><g transform="translate(408,290) scale(0.9583333333333334)" fill="none" stroke="#5c5c66" stroke-width="1.7" stroke-linecap="round" stroke-linejoin="round"><rect x="5" y="6" width="14" height="5" rx="1.5"/><rect x="5" y="13" width="14" height="5" rx="1.5"/><path d="M8 8.5h.01 M8 15.5h.01"/></g><text x="419" y="327" text-anchor="middle" font-family="Inter,system-ui,sans-serif" font-size="8" font-weight="800" fill="#18181b">Asset</text>
<rect x="511" y="278" width="56" height="56" rx="11" fill="#ffffff" stroke="#e6e6ea" stroke-width="1.4"/><g transform="translate(528,290) scale(0.9583333333333334)" fill="none" stroke="#5c5c66" stroke-width="1.7" stroke-linecap="round" stroke-linejoin="round"><rect x="6" y="9" width="12" height="9" rx="2.5"/><circle cx="10" cy="13.5" r="1.3"/><circle cx="14" cy="13.5" r="1.3"/><path d="M9 17h6M12 6v3M9 6h6"/></g><text x="539" y="327" text-anchor="middle" font-family="Inter,system-ui,sans-serif" font-size="8" font-weight="800" fill="#18181b">Agent</text>
<rect x="417" y="336" width="52" height="52" rx="10" fill="#ffffff" stroke="#e6e6ea" stroke-width="1.4"/><g transform="translate(433,348) scale(0.875)" fill="none" stroke="#5c5c66" stroke-width="1.7" stroke-linecap="round" stroke-linejoin="round"><path d="M14.7 6.3a4.5 4.5 0 0 0-6.1 6.1L5 16l3 3 3.6-3.6a4.5 4.5 0 0 0 6.1-6.1l-2.4 2.4"/></g><text x="443" y="381" text-anchor="middle" font-family="Inter,system-ui,sans-serif" font-size="8" font-weight="800" fill="#18181b">Tool</text>
<rect x="489" y="336" width="52" height="52" rx="10" fill="#ffffff" stroke="#e6e6ea" stroke-width="1.4"/><g transform="translate(505,348) scale(0.875)" fill="none" stroke="#5c5c66" stroke-width="1.7" stroke-linecap="round" stroke-linejoin="round"><circle cx="9" cy="12" r="3.5"/><path d="M12.5 12H19v2.5h-2V12"/></g><text x="515" y="381" text-anchor="middle" font-family="Inter,system-ui,sans-serif" font-size="8" font-weight="800" fill="#18181b">Cred</text>
<rect x="400" y="414" width="50" height="18" rx="6" fill="#f4f4f6" stroke="#e6e6ea"/><text x="425.0" y="426" text-anchor="middle" font-family="Inter,system-ui,sans-serif" font-size="7" font-weight="700" fill="#52525b">severity</text>
<rect x="454" y="414" width="50" height="18" rx="6" fill="#f4f4f6" stroke="#e6e6ea"/><text x="479.0" y="426" text-anchor="middle" font-family="Inter,system-ui,sans-serif" font-size="7" font-weight="700" fill="#52525b">provenance</text>
<rect x="508" y="414" width="50" height="18" rx="6" fill="#f4f4f6" stroke="#e6e6ea"/><text x="533.0" y="426" text-anchor="middle" font-family="Inter,system-ui,sans-serif" font-size="7" font-weight="700" fill="#52525b">tenant</text>
<rect x="584" y="146" width="70" height="42" rx="9" fill="#ffffff" stroke="#e6e6ea"/>
<rect x="607" y="151" width="24" height="24" rx="6" fill="#f4f4f6" stroke="#e6e6ea"/><g transform="translate(611,155) scale(0.6666666666666666)" fill="none" stroke="#5c5c66" stroke-width="1.5" stroke-linecap="round" stroke-linejoin="round"><path d="M8 8l-4 4 4 4M16 8l4 4-4 4"/></g>
<text x="619" y="181" text-anchor="middle" font-family="Inter,system-ui,sans-serif" font-size="7.5" font-weight="700" fill="#18181b">REST API</text>
<rect x="662" y="146" width="70" height="42" rx="9" fill="#ffffff" stroke="#e6e6ea"/>
<rect x="685" y="151" width="24" height="24" rx="6" fill="#f4f4f6" stroke="#e6e6ea"/><g transform="translate(689,155) scale(0.6666666666666666)" fill="none" stroke="#5c5c66" stroke-width="1.5" stroke-linecap="round" stroke-linejoin="round"><rect x="4" y="5" width="16" height="12" rx="2"/><path d="M4 9h16"/></g>
<text x="697" y="181" text-anchor="middle" font-family="Inter,system-ui,sans-serif" font-size="7.5" font-weight="700" fill="#18181b">Dashboard</text>
<rect x="584" y="198" width="70" height="42" rx="9" fill="#ffffff" stroke="#e6e6ea"/>
<rect x="607" y="203" width="24" height="24" rx="6" fill="#f4f4f6" stroke="#e6e6ea"/><g transform="translate(611,207) scale(0.6666666666666666)" fill="none" stroke="#5c5c66" stroke-width="1.5" stroke-linecap="round" stroke-linejoin="round"><circle cx="12" cy="9" r="3"/><circle cx="8" cy="17" r="2.4"/><circle cx="16" cy="17" r="2.4"/><path d="M10 11l-2 4 M14 11l2 4"/></g>
<text x="619" y="233" text-anchor="middle" font-family="Inter,system-ui,sans-serif" font-size="7.5" font-weight="700" fill="#18181b">MCP srv</text>
<rect x="662" y="198" width="70" height="42" rx="9" fill="#ffffff" stroke="#e6e6ea"/>
<rect x="685" y="203" width="24" height="24" rx="6" fill="#f4f4f6" stroke="#e6e6ea"/><g transform="translate(689,207) scale(0.6666666666666666)" fill="none" stroke="#5c5c66" stroke-width="1.5" stroke-linecap="round" stroke-linejoin="round"><path d="M12 4l7 2.5v5c0 4.5-3 7-7 8.5-4-1.5-7-4-7-8.5v-5z"/><path d="M9 12l2 2 4-4"/></g>
<text x="697" y="233" text-anchor="middle" font-family="Inter,system-ui,sans-serif" font-size="7.5" font-weight="700" fill="#18181b">Gateway</text>
<rect x="584" y="250" width="70" height="42" rx="9" fill="#ffffff" stroke="#e6e6ea"/>
<rect x="607" y="255" width="24" height="24" rx="6" fill="#f4f4f6" stroke="#e6e6ea"/><g transform="translate(611,259) scale(0.6666666666666666)" fill="none" stroke="#5c5c66" stroke-width="1.5" stroke-linecap="round" stroke-linejoin="round"><rect x="4" y="5" width="6" height="6" rx="1.5"/><rect x="14" y="5" width="6" height="6" rx="1.5"/><rect x="4" y="13" width="6" height="6" rx="1.5"/><rect x="14" y="13" width="6" height="6" rx="1.5"/></g>
<text x="619" y="285" text-anchor="middle" font-family="Inter,system-ui,sans-serif" font-size="7.5" font-weight="700" fill="#18181b">Fleet</text>
<rect x="662" y="250" width="70" height="42" rx="9" fill="#ffffff" stroke="#e6e6ea"/>
<rect x="685" y="255" width="24" height="24" rx="6" fill="#f4f4f6" stroke="#e6e6ea"/><g transform="translate(689,259) scale(0.6666666666666666)" fill="none" stroke="#5c5c66" stroke-width="1.5" stroke-linecap="round" stroke-linejoin="round"><path d="M6 5h12v14H6z M9 9h8 M9 12h8"/><path d="M9 16l2 2 4-4"/></g>
<text x="697" y="285" text-anchor="middle" font-family="Inter,system-ui,sans-serif" font-size="7.5" font-weight="700" fill="#18181b">Audit</text>
<rect x="584" y="416" width="158" height="22" rx="7" fill="#f4f4f6" stroke="#e4e4e7"/><text x="663" y="432" text-anchor="middle" font-family="Inter,system-ui,sans-serif" font-size="7.5" font-weight="700" fill="#52525b">fail-closed · RBAC · audit</text>
<rect x="768" y="146" width="158" height="30" rx="8" fill="#ffffff" stroke="#f87171" stroke-width="1.1"/><circle cx="780" cy="161" r="3.5" fill="#f87171"/><text x="847" y="165" text-anchor="middle" font-family="ui-monospace,monospace" font-size="8.5" font-weight="800" fill="#18181b">SARIF</text>
<rect x="768" y="192" width="158" height="30" rx="8" fill="#ffffff" stroke="#fbbf24" stroke-width="1.1"/><circle cx="780" cy="207" r="3.5" fill="#fbbf24"/><text x="847" y="211" text-anchor="middle" font-family="ui-monospace,monospace" font-size="8.5" font-weight="800" fill="#18181b">SBOM</text>
<rect x="768" y="238" width="158" height="30" rx="8" fill="#ffffff" stroke="#60a5fa" stroke-width="1.1"/><circle cx="780" cy="253" r="3.5" fill="#60a5fa"/><text x="847" y="257" text-anchor="middle" font-family="ui-monospace,monospace" font-size="8.5" font-weight="800" fill="#18181b">HTML</text>
<rect x="768" y="284" width="158" height="30" rx="8" fill="#ffffff" stroke="#a78bfa" stroke-width="1.1"/><circle cx="780" cy="299" r="3.5" fill="#a78bfa"/><text x="847" y="303" text-anchor="middle" font-family="ui-monospace,monospace" font-size="8.5" font-weight="800" fill="#18181b">JSON</text>
<rect x="768" y="330" width="158" height="30" rx="8" fill="#ffffff" stroke="#34d399" stroke-width="1.1"/><circle cx="780" cy="345" r="3.5" fill="#34d399"/><text x="847" y="349" text-anchor="middle" font-family="ui-monospace,monospace" font-size="8.5" font-weight="800" fill="#18181b">GATE</text>
<rect x="768" y="376" width="158" height="30" rx="8" fill="#ffffff" stroke="#fb7185" stroke-width="1.1"/><circle cx="780" cy="391" r="3.5" fill="#fb7185"/><text x="847" y="395" text-anchor="middle" font-family="ui-monospace,monospace" font-size="8.5" font-weight="800" fill="#18181b">FIX</text>
<line x1="189" y1="88" x2="210" y2="88" stroke="#a1a1aa" stroke-width="1.8"/><polygon points="216,88 210,84.5 210,91.5" fill="#a1a1aa"/><text x="203" y="78" text-anchor="middle" font-family="Inter,system-ui,sans-serif" font-size="7" font-weight="800" letter-spacing="0.1em" fill="#9a9aa4">COLLECT</text>
<line x1="373" y1="88" x2="394" y2="88" stroke="#a1a1aa" stroke-width="1.8"/><polygon points="400,88 394,84.5 394,91.5" fill="#a1a1aa"/><text x="387" y="78" text-anchor="middle" font-family="Inter,system-ui,sans-serif" font-size="7" font-weight="800" letter-spacing="0.1em" fill="#9a9aa4">NORMALIZE</text>
<line x1="557" y1="88" x2="578" y2="88" stroke="#7c3aed" stroke-width="2.2"/><polygon points="584,88 578,84.5 578,91.5" fill="#7c3aed"/><text x="571" y="78" text-anchor="middle" font-family="Inter,system-ui,sans-serif" font-size="7" font-weight="800" letter-spacing="0.1em" fill="#7c3aed">SERVE</text>
<line x1="741" y1="88" x2="762" y2="88" stroke="#a1a1aa" stroke-width="1.8"/><polygon points="768,88 762,84.5 762,91.5" fill="#a1a1aa"/><text x="755" y="78" text-anchor="middle" font-family="Inter,system-ui,sans-serif" font-size="7" font-weight="800" letter-spacing="0.1em" fill="#9a9aa4">EXPORT</text>
<rect x="24" y="520" width="912" height="28" rx="8" fill="#ecfdf5" stroke="#bbf7d0"/><text x="480" y="540" text-anchor="middle" font-family="Inter,system-ui,sans-serif" font-size="8.5" font-weight="600" fill="#15803d">read-only · secret redaction · signed evidence · same model everywhere</text>
</svg>
