<svg xmlns="http://www.w3.org/2000/svg" viewBox="0 0 1320 650" fill="none" role="img" aria-labelledby="how-title how-desc">
<title id="how-title">How agent-bom works</title>
<desc id="how-desc">A visual flow from read-only inputs through the scan engine, into one unified Finding and ContextGraph, served by the control plane, and exported as reports, gates, and runtime controls.</desc>
<defs>
<marker id="hiw-arrow" viewBox="0 0 10 8" refX="8.2" refY="4" markerWidth="7" markerHeight="6" orient="auto"><path d="M0 0 L10 4 L0 8 Z" fill="#52525b"/></marker>
<style>
text { font-family: Inter, ui-sans-serif, system-ui, -apple-system, 'Segoe UI', sans-serif; }
.title { font-size: 30px; font-weight: 850; } .subtitle { font-size: 13px; font-weight: 500; } .label { font-size: 11px; font-weight: 800; letter-spacing: .15em; }
.step { font-size: 22px; font-weight: 800; } .chip { font-size: 13px; font-weight: 700; } .badge { font-size: 10.5px; font-weight: 700; } .tiny { font-size: 10px; font-weight: 600; } .node { font-size: 11px; font-weight: 800; }
.ic { fill: none; stroke: #9a9aa4; stroke-width: 1.7; stroke-linecap: round; stroke-linejoin: round; }
.ic-a { fill: none; stroke: #a78bfa; stroke-width: 1.8; stroke-linecap: round; stroke-linejoin: round; }
</style></defs>
<rect x="0" y="0" width="1320" height="650" rx="18" fill="#0a0a0c"/>
<text x="48" y="52" class="title" fill="#f4f4f5">From inventory to enforceable evidence</text>
<text x="48" y="78" class="subtitle" fill="#82828c">Read-only collection becomes deterministic matching, enriched findings, graph-backed blast radius, and operational outputs.</text>

<rect x="40" y="118" width="240" height="392" rx="18" fill="#0f0f13" stroke="#222228"/>
<text x="58" y="149" class="label" fill="#a78bfa">READ-ONLY INTAKE</text>
<rect x="330" y="118" width="230" height="392" rx="18" fill="#0f0f13" stroke="#222228"/>
<text x="348" y="149" class="label" fill="#a78bfa">SCAN ENGINE</text>
<rect x="610" y="118" width="270" height="392" rx="18" fill="#0f0f13" stroke="#222228"/>
<text x="628" y="149" class="label" fill="#a78bfa">EVIDENCE CORE</text>
<rect x="930" y="118" width="200" height="392" rx="18" fill="#0f0f13" stroke="#222228"/>
<text x="948" y="149" class="label" fill="#a78bfa">CONTROL PLANE</text>
<rect x="1170" y="118" width="120" height="392" rx="18" fill="#0f0f13" stroke="#222228"/>
<text x="1188" y="149" class="label" fill="#a78bfa">OUTPUTS</text>

<!-- intake nodes -->
<rect x="62" y="165" width="92" height="42" rx="12" fill="#161619" stroke="#2a2a31"/>
<rect x="71" y="175" width="22" height="22" rx="6" fill="#1c1c21" stroke="#2e2e35"/><path class="ic" d="M77 178h8l4 4v11h-12z M85 178v4h4"/>
<text x="103" y="191" class="chip" fill="#f4f4f5">Repo</text>
<rect x="166" y="165" width="92" height="42" rx="12" fill="#161619" stroke="#2a2a31"/>
<rect x="175" y="175" width="22" height="22" rx="6" fill="#1c1c21" stroke="#2e2e35"/><path class="ic" d="M180 186l4 4 9-10"/>
<text x="207" y="191" class="chip" fill="#f4f4f5">CI</text>
<rect x="62" y="229" width="92" height="42" rx="12" fill="#161619" stroke="#2a2a31"/>
<rect x="71" y="239" width="22" height="22" rx="6" fill="#1c1c21" stroke="#2e2e35"/><circle class="ic" cx="82" cy="247" r="2.6"/><circle class="ic" cx="77" cy="256" r="2.2"/><circle class="ic" cx="87" cy="256" r="2.2"/><path class="ic" d="M80 250l-2 5 M84 250l2 5"/>
<text x="103" y="255" class="chip" fill="#f4f4f5">MCP</text>
<rect x="166" y="229" width="92" height="42" rx="12" fill="#161619" stroke="#2a2a31"/>
<rect x="175" y="239" width="22" height="22" rx="6" fill="#1c1c21" stroke="#2e2e35"/><path class="ic" d="M180 256h12a4 4 0 0 0 .6-7.9 6 6 0 0 0-11.3-1.6A4 4 0 0 0 180 256z"/>
<text x="207" y="255" class="chip" fill="#f4f4f5">Cloud</text>
<rect x="62" y="293" width="92" height="42" rx="12" fill="#161619" stroke="#2a2a31"/>
<rect x="71" y="303" width="22" height="22" rx="6" fill="#1c1c21" stroke="#2e2e35"/><rect class="ic" x="76" y="307" width="12" height="11" rx="2"/><path class="ic" d="M78 316l3-3 2 2 3-3 2 4"/>
<text x="103" y="319" class="chip" fill="#f4f4f5">Image</text>
<rect x="166" y="293" width="92" height="42" rx="12" fill="#161619" stroke="#2a2a31"/>
<rect x="175" y="303" width="22" height="22" rx="6" fill="#1c1c21" stroke="#2e2e35"/><path class="ic" d="M182 306c-4 3-4 13 0 16 M190 306c4 3 4 13 0 16"/>
<text x="207" y="319" class="chip" fill="#f4f4f5">IaC</text>
<rect x="62" y="357" width="92" height="42" rx="12" fill="#161619" stroke="#2a2a31"/>
<rect x="71" y="367" width="22" height="22" rx="6" fill="#1c1c21" stroke="#2e2e35"/><path class="ic" d="M76 370h12v16h-12z M79 375h6 M79 379h6 M79 383h4"/>
<text x="103" y="383" class="chip" fill="#f4f4f5">SBOM</text>
<rect x="166" y="357" width="92" height="42" rx="12" fill="#161619" stroke="#2a2a31"/>
<rect x="175" y="367" width="22" height="22" rx="6" fill="#1c1c21" stroke="#2e2e35"/><path class="ic" d="M186 369l6 3v8l-6 3-6-3v-8z M186 369v14 M180 372l12 6"/>
<text x="207" y="383" class="chip" fill="#f4f4f5">Model</text>
<rect x="62" y="438" width="46" height="26" rx="9" fill="#161619" stroke="#2a2a31"/><text x="85" y="455" class="badge" fill="#a1a1aa" text-anchor="middle">AWS</text>
<rect x="114" y="438" width="46" height="26" rx="9" fill="#161619" stroke="#2a2a31"/><text x="137" y="455" class="badge" fill="#a1a1aa" text-anchor="middle">AZ</text>
<rect x="166" y="438" width="46" height="26" rx="9" fill="#161619" stroke="#2a2a31"/><text x="189" y="455" class="badge" fill="#a1a1aa" text-anchor="middle">GCP</text>
<rect x="218" y="438" width="46" height="26" rx="9" fill="#161619" stroke="#2a2a31"/><text x="241" y="455" class="badge" fill="#a1a1aa" text-anchor="middle">SNOW</text>
<text x="160" y="486" class="tiny" fill="#6b6b75" text-anchor="middle">no writes · no secret values</text>

<!-- scan steps -->
<circle cx="368" cy="183" r="17" fill="#161619" stroke="#2a2a31" stroke-width="1.6"/><text x="368" y="188" class="badge" fill="#a78bfa" text-anchor="middle">1</text>
<text x="406" y="190" class="step" fill="#f4f4f5">Discover</text>
<path d="M368 201 C368 210 368 213 368 220" stroke="#3a3a42" stroke-width="2" fill="none" stroke-linecap="round"/>
<circle cx="368" cy="241" r="17" fill="#161619" stroke="#2a2a31" stroke-width="1.6"/><text x="368" y="246" class="badge" fill="#a78bfa" text-anchor="middle">2</text>
<text x="406" y="248" class="step" fill="#f4f4f5">Match</text>
<path d="M368 259 C368 268 368 271 368 278" stroke="#3a3a42" stroke-width="2" fill="none" stroke-linecap="round"/>
<circle cx="368" cy="299" r="17" fill="#161619" stroke="#2a2a31" stroke-width="1.6"/><text x="368" y="304" class="badge" fill="#a78bfa" text-anchor="middle">3</text>
<text x="406" y="306" class="step" fill="#f4f4f5">Enrich</text>
<path d="M368 317 C368 326 368 329 368 336" stroke="#3a3a42" stroke-width="2" fill="none" stroke-linecap="round"/>
<circle cx="368" cy="357" r="17" fill="#161619" stroke="#2a2a31" stroke-width="1.6"/><text x="368" y="362" class="badge" fill="#a78bfa" text-anchor="middle">4</text>
<text x="406" y="364" class="step" fill="#f4f4f5">Evaluate</text>
<path d="M368 375 C368 384 368 387 368 394" stroke="#3a3a42" stroke-width="2" fill="none" stroke-linecap="round"/>
<circle cx="368" cy="415" r="17" fill="#161619" stroke="#2a2a31" stroke-width="1.6"/><text x="368" y="420" class="badge" fill="#a78bfa" text-anchor="middle">5</text>
<text x="406" y="422" class="step" fill="#f4f4f5">Normalize</text>
<rect x="350" y="446" width="76" height="26" rx="9" fill="#161619" stroke="#2a2a31"/><text x="388" y="463" class="badge" fill="#a1a1aa" text-anchor="middle">OSV</text>
<rect x="440" y="446" width="76" height="26" rx="9" fill="#161619" stroke="#2a2a31"/><text x="478" y="463" class="badge" fill="#a1a1aa" text-anchor="middle">GHSA</text>
<rect x="350" y="477" width="76" height="26" rx="9" fill="#161619" stroke="#2a2a31"/><text x="388" y="494" class="badge" fill="#a1a1aa" text-anchor="middle">NVD</text>
<rect x="440" y="477" width="76" height="26" rx="9" fill="#161619" stroke="#2a2a31"/><text x="478" y="494" class="badge" fill="#a1a1aa" text-anchor="middle">KEV</text>
<rect x="350" y="508" width="76" height="26" rx="9" fill="#161619" stroke="#2a2a31"/><text x="388" y="525" class="badge" fill="#a1a1aa" text-anchor="middle">EPSS</text>

<!-- evidence graph -->
<text x="745" y="178" class="step" fill="#f4f4f5" text-anchor="middle">Finding + ContextGraph</text>
<line x1="745" y1="256" x2="673" y2="312" stroke="#3a3a42" stroke-width="1.5"/>
<line x1="745" y1="256" x2="817" y2="312" stroke="#3a3a42" stroke-width="1.5"/>
<line x1="745" y1="256" x2="703" y2="372" stroke="#3a3a42" stroke-width="1.5"/>
<line x1="745" y1="256" x2="789" y2="372" stroke="#3a3a42" stroke-width="1.5"/>
<line x1="673" y1="312" x2="703" y2="372" stroke="#3a3a42" stroke-width="1.5"/>
<line x1="817" y1="312" x2="789" y2="372" stroke="#3a3a42" stroke-width="1.5"/>
<line x1="703" y1="372" x2="789" y2="372" stroke="#3a3a42" stroke-width="1.5"/>
<circle cx="745" cy="256" r="36" fill="#15121f" stroke="#7c5cff" stroke-width="2.4"/><text x="745" y="260" class="node" fill="#c4b5fd" text-anchor="middle">Finding</text>
<circle cx="673" cy="312" r="33" fill="#161619" stroke="#3a3a42" stroke-width="2"/><text x="673" y="316" class="node" fill="#d4d4d8" text-anchor="middle">Asset</text>
<circle cx="817" cy="312" r="33" fill="#161619" stroke="#3a3a42" stroke-width="2"/><text x="817" y="316" class="node" fill="#d4d4d8" text-anchor="middle">Agent</text>
<circle cx="703" cy="372" r="31" fill="#161619" stroke="#3a3a42" stroke-width="2"/><text x="703" y="376" class="node" fill="#d4d4d8" text-anchor="middle">Tool</text>
<circle cx="789" cy="372" r="31" fill="#161619" stroke="#3a3a42" stroke-width="2"/><text x="789" y="376" class="node" fill="#d4d4d8" text-anchor="middle">Cred</text>
<rect x="650" y="410" width="84" height="26" rx="9" fill="#161619" stroke="#2a2a31"/><text x="692" y="427" class="badge" fill="#a1a1aa" text-anchor="middle">severity</text>
<rect x="746" y="410" width="106" height="26" rx="9" fill="#161619" stroke="#2a2a31"/><text x="799" y="427" class="badge" fill="#a1a1aa" text-anchor="middle">provenance</text>
<rect x="696" y="446" width="108" height="26" rx="9" fill="#161619" stroke="#2a2a31"/><text x="750" y="463" class="badge" fill="#a1a1aa" text-anchor="middle">tenant scope</text>
<text x="745" y="490" class="tiny" fill="#6b6b75" text-anchor="middle">one model across scan, cloud, runtime, and imports</text>

<!-- control plane rows -->
<rect x="958" y="165" width="144" height="38" rx="11" fill="#161619" stroke="#2a2a31"/>
<path class="ic" d="M974 175l-4 7 4 7 M982 175l4 7-4 7"/><text x="1000" y="189" class="chip" fill="#f4f4f5">API</text>
<rect x="958" y="215" width="144" height="38" rx="11" fill="#161619" stroke="#2a2a31"/>
<rect class="ic" x="970" y="226" width="14" height="11" rx="2"/><path class="ic" d="M970 230h14"/><text x="1000" y="239" class="chip" fill="#f4f4f5">UI</text>
<rect x="958" y="265" width="144" height="38" rx="11" fill="#161619" stroke="#2a2a31"/>
<circle class="ic" cx="977" cy="280" r="2.4"/><circle class="ic" cx="973" cy="288" r="2"/><circle class="ic" cx="981" cy="288" r="2"/><path class="ic" d="M975.5 282l-2 5 M978.5 282l2 5"/><text x="1000" y="289" class="chip" fill="#f4f4f5">MCP</text>
<rect x="958" y="315" width="144" height="38" rx="11" fill="#161619" stroke="#2a2a31"/>
<path class="ic" d="M977 326l6 2v4c0 4-2.6 6-6 7-3.4-1-6-3-6-7v-4z M974 333l2 2 3.5-4"/><text x="1000" y="339" class="chip" fill="#f4f4f5">Gate</text>
<rect x="958" y="365" width="144" height="38" rx="11" fill="#161619" stroke="#2a2a31"/>
<rect class="ic" x="971" y="377" width="5" height="5" rx="1.3"/><rect class="ic" x="979" y="377" width="5" height="5" rx="1.3"/><rect class="ic" x="971" y="385" width="5" height="5" rx="1.3"/><rect class="ic" x="979" y="385" width="5" height="5" rx="1.3"/><text x="1000" y="389" class="chip" fill="#f4f4f5">Work</text>
<rect x="958" y="415" width="144" height="38" rx="11" fill="#161619" stroke="#2a2a31"/>
<path class="ic" d="M973 427h10v12h-10z M976 427v-2h4v2 M975 432l1.5 1.5 3-3"/><text x="1000" y="439" class="chip" fill="#f4f4f5">Audit</text>
<text x="1030" y="486" class="tiny" fill="#6b6b75" text-anchor="middle">fail-closed auth · RBAC · scopes · audit</text>

<!-- outputs -->
<rect x="1195" y="165" width="70" height="26" rx="9" fill="#161619" stroke="#2a2a31"/><text x="1230" y="182" class="badge" fill="#a1a1aa" text-anchor="middle">SARIF</text>
<rect x="1195" y="210" width="70" height="26" rx="9" fill="#161619" stroke="#2a2a31"/><text x="1230" y="227" class="badge" fill="#a1a1aa" text-anchor="middle">SBOM</text>
<rect x="1195" y="255" width="70" height="26" rx="9" fill="#161619" stroke="#2a2a31"/><text x="1230" y="272" class="badge" fill="#a1a1aa" text-anchor="middle">HTML</text>
<rect x="1195" y="300" width="70" height="26" rx="9" fill="#161619" stroke="#2a2a31"/><text x="1230" y="317" class="badge" fill="#a1a1aa" text-anchor="middle">JSON</text>
<rect x="1195" y="345" width="70" height="26" rx="9" fill="#161619" stroke="#2a2a31"/><text x="1230" y="362" class="badge" fill="#a1a1aa" text-anchor="middle">POSTURE</text>
<rect x="1195" y="390" width="70" height="26" rx="9" fill="#161619" stroke="#2a2a31"/><text x="1230" y="407" class="badge" fill="#a1a1aa" text-anchor="middle">FIX</text>
<text x="1230" y="452" class="tiny" fill="#6b6b75" text-anchor="middle">reports</text>
<text x="1230" y="474" class="tiny" fill="#6b6b75" text-anchor="middle">gates</text>
<text x="1230" y="496" class="tiny" fill="#6b6b75" text-anchor="middle">runtime</text>

<!-- flow arrows -->
<path d="M280 314 C302 314 308 314 330 314" stroke="#52525b" stroke-width="2.2" fill="none" marker-end="url(#hiw-arrow)" stroke-linecap="round"/><text x="305" y="302" class="tiny" fill="#6b6b75" text-anchor="middle">collect</text>
<path d="M560 314 C582 314 588 314 610 314" stroke="#52525b" stroke-width="2.2" fill="none" marker-end="url(#hiw-arrow)" stroke-linecap="round"/><text x="585" y="302" class="tiny" fill="#6b6b75" text-anchor="middle">canonicalize</text>
<path d="M880 314 C902 314 908 314 930 314" stroke="#8b5cf6" stroke-width="2.4" fill="none" marker-end="url(#hiw-arrow)" stroke-linecap="round"/><text x="905" y="302" class="tiny" fill="#a78bfa" text-anchor="middle">serve</text>
<path d="M1130 314 C1148 314 1152 314 1170 314" stroke="#52525b" stroke-width="2.2" fill="none" marker-end="url(#hiw-arrow)" stroke-linecap="round"/><text x="1150" y="302" class="tiny" fill="#6b6b75" text-anchor="middle">export</text>

<rect x="40" y="548" width="1250" height="46" rx="14" fill="#0c1a14" stroke="#1f4438"/>
<text x="66" y="577" class="tiny" fill="#4ade80" font-weight="800">Trust boundary:</text>
<text x="180" y="577" class="tiny" fill="#a1a1aa">default-off cloud connectors · read-only permissions · secret redaction · signed evidence · same model everywhere</text>
</svg>
