<svg xmlns="http://www.w3.org/2000/svg" viewBox="0 0 1260 620" fill="none" role="img" aria-labelledby="how-title how-desc">
<title id="how-title">How agent-bom works</title>
<desc id="how-desc">A concise visual flow from read-only inputs through scan and enrichment, unified evidence graph, control plane, outputs, reports, posture, and enforcement.</desc>
<defs><marker id="arrow" viewBox="0 0 10 8" refX="8.5" refY="4" markerWidth="9" markerHeight="7" orient="auto"><path d="M0 0 L10 4 L0 8 Z" fill="#9ca3af"/></marker>
<style>
text { font-family: Inter, ui-sans-serif, system-ui, -apple-system, 'Segoe UI', sans-serif; letter-spacing: 0; }
.title { font-size: 29px; font-weight: 850; } .subtitle { font-size: 13px; font-weight: 550; } .label { font-size: 11px; font-weight: 850; letter-spacing: .14em; }
.card-title { font-size: 18px; font-weight: 850; } .chip { font-size: 13px; font-weight: 800; } .badge { font-size: 10px; font-weight: 850; } .tiny { font-size: 10px; font-weight: 700; } .node { font-size: 10px; font-weight: 850; }
</style></defs>
<rect x="0" y="0" width="1260" height="620" rx="18" fill="#ffffff" stroke="#d7dce5" stroke-width="0"/>
<text x="48" y="50" class="title" fill="#111827">From inventory to enforceable evidence</text>
<text x="48" y="74" class="subtitle" fill="#4b5563">Read-only collection, deterministic matching, graph-backed blast radius, and one control plane for humans and agents.</text>
<rect x="40" y="112" width="220" height="390" rx="18" fill="#f8fafc" stroke="#d7dce5" stroke-width="1"/>
<text x="58" y="142" class="label" fill="#1d4ed8">READ-ONLY INTAKE</text>
<rect x="300" y="112" width="210" height="390" rx="18" fill="#f8fafc" stroke="#d7dce5" stroke-width="1"/>
<text x="318" y="142" class="label" fill="#b45309">SCAN ENGINE</text>
<rect x="550" y="112" width="240" height="390" rx="18" fill="#f8fafc" stroke="#d7dce5" stroke-width="1"/>
<text x="568" y="142" class="label" fill="#6d28d9">EVIDENCE CORE</text>
<rect x="830" y="112" width="190" height="390" rx="18" fill="#f8fafc" stroke="#d7dce5" stroke-width="1"/>
<text x="848" y="142" class="label" fill="#047857">CONTROL PLANE</text>
<rect x="1060" y="112" width="160" height="390" rx="18" fill="#f8fafc" stroke="#d7dce5" stroke-width="1"/>
<text x="1078" y="142" class="label" fill="#0e7490">OUTPUTS</text>
<rect x="63" y="160" width="78" height="38" rx="12" fill="#eff6ff" stroke="#60a5fa" stroke-width="1.5"/>
<circle cx="83" cy="179" r="9" fill="#1d4ed8" opacity="0.95"/>
<text x="101" y="183" class="chip" fill="#111827">REPO</text>
<rect x="158" y="160" width="78" height="38" rx="12" fill="#eff6ff" stroke="#60a5fa" stroke-width="1.5"/>
<circle cx="178" cy="179" r="9" fill="#1d4ed8" opacity="0.95"/>
<text x="196" y="183" class="chip" fill="#111827">CI</text>
<rect x="63" y="221" width="78" height="38" rx="12" fill="#f5f3ff" stroke="#a78bfa" stroke-width="1.5"/>
<circle cx="83" cy="240" r="9" fill="#6d28d9" opacity="0.95"/>
<text x="101" y="244" class="chip" fill="#111827">MCP</text>
<rect x="158" y="221" width="78" height="38" rx="12" fill="#ecfeff" stroke="#22d3ee" stroke-width="1.5"/>
<circle cx="178" cy="240" r="9" fill="#0e7490" opacity="0.95"/>
<text x="196" y="244" class="chip" fill="#111827">CLOUD</text>
<rect x="63" y="282" width="78" height="38" rx="12" fill="#fffbeb" stroke="#f59e0b" stroke-width="1.5"/>
<circle cx="83" cy="301" r="9" fill="#b45309" opacity="0.95"/>
<text x="101" y="305" class="chip" fill="#111827">IMG</text>
<rect x="158" y="282" width="78" height="38" rx="12" fill="#fff7ed" stroke="#fb923c" stroke-width="1.5"/>
<circle cx="178" cy="301" r="9" fill="#c2410c" opacity="0.95"/>
<text x="196" y="305" class="chip" fill="#111827">IaC</text>
<rect x="63" y="343" width="78" height="38" rx="12" fill="#ecfdf5" stroke="#34d399" stroke-width="1.5"/>
<circle cx="83" cy="362" r="9" fill="#047857" opacity="0.95"/>
<text x="101" y="366" class="chip" fill="#111827">SBOM</text>
<rect x="158" y="343" width="78" height="38" rx="12" fill="#fff1f2" stroke="#fb7185" stroke-width="1.5"/>
<circle cx="178" cy="362" r="9" fill="#be123c" opacity="0.95"/>
<text x="196" y="366" class="chip" fill="#111827">MODEL</text>
<rect x="62" y="424" width="42" height="24" rx="12" fill="#fff7ed" stroke="#fb923c" stroke-width="1"/>
<text x="83.0" y="440" class="badge" fill="#c2410c" text-anchor="middle">AWS</text>
<rect x="109" y="424" width="42" height="24" rx="12" fill="#eff6ff" stroke="#60a5fa" stroke-width="1"/>
<text x="130.0" y="440" class="badge" fill="#1d4ed8" text-anchor="middle">AZ</text>
<rect x="156" y="424" width="42" height="24" rx="12" fill="#ecfdf5" stroke="#34d399" stroke-width="1"/>
<text x="177.0" y="440" class="badge" fill="#047857" text-anchor="middle">GCP</text>
<rect x="203" y="424" width="42" height="24" rx="12" fill="#ecfeff" stroke="#22d3ee" stroke-width="1"/>
<text x="224.0" y="440" class="badge" fill="#0e7490" text-anchor="middle">SNOW</text>
<text x="150" y="468" class="tiny" fill="#6b7280" text-anchor="middle">no writes · no secret values</text>
<circle cx="338" cy="173" r="17" fill="#eff6ff" stroke="#60a5fa" stroke-width="2"/>
<text x="338" y="178" class="badge" fill="#1d4ed8" text-anchor="middle">1</text>
<text x="370" y="178" class="card-title" fill="#111827">Discover</text>
<line x1="338" y1="193" x2="338" y2="212" stroke="#9ca3af" stroke-width="1.8"/>
<circle cx="338" cy="231" r="17" fill="#fffbeb" stroke="#f59e0b" stroke-width="2"/>
<text x="338" y="236" class="badge" fill="#b45309" text-anchor="middle">2</text>
<text x="370" y="236" class="card-title" fill="#111827">Match</text>
<line x1="338" y1="251" x2="338" y2="270" stroke="#9ca3af" stroke-width="1.8"/>
<circle cx="338" cy="289" r="17" fill="#fff1f2" stroke="#fb7185" stroke-width="2"/>
<text x="338" y="294" class="badge" fill="#be123c" text-anchor="middle">3</text>
<text x="370" y="294" class="card-title" fill="#111827">Enrich</text>
<line x1="338" y1="309" x2="338" y2="328" stroke="#9ca3af" stroke-width="1.8"/>
<circle cx="338" cy="347" r="17" fill="#ecfeff" stroke="#22d3ee" stroke-width="2"/>
<text x="338" y="352" class="badge" fill="#0e7490" text-anchor="middle">4</text>
<text x="370" y="352" class="card-title" fill="#111827">Evaluate</text>
<line x1="338" y1="367" x2="338" y2="386" stroke="#9ca3af" stroke-width="1.8"/>
<circle cx="338" cy="405" r="17" fill="#f5f3ff" stroke="#a78bfa" stroke-width="2"/>
<text x="338" y="410" class="badge" fill="#6d28d9" text-anchor="middle">5</text>
<text x="370" y="410" class="card-title" fill="#111827">Normalize</text>
<rect x="318" y="440" width="72" height="24" rx="12" fill="#fff1f2" stroke="#fb7185" stroke-width="1"/>
<text x="354.0" y="456" class="badge" fill="#be123c" text-anchor="middle">OSV</text>
<rect x="401" y="440" width="72" height="24" rx="12" fill="#fff1f2" stroke="#fb7185" stroke-width="1"/>
<text x="437.0" y="456" class="badge" fill="#be123c" text-anchor="middle">GHSA</text>
<rect x="318" y="468" width="72" height="24" rx="12" fill="#fff1f2" stroke="#fb7185" stroke-width="1"/>
<text x="354.0" y="484" class="badge" fill="#be123c" text-anchor="middle">NVD</text>
<rect x="401" y="468" width="72" height="24" rx="12" fill="#fff7ed" stroke="#fb923c" stroke-width="1"/>
<text x="437.0" y="484" class="badge" fill="#c2410c" text-anchor="middle">KEV</text>
<rect x="318" y="496" width="72" height="24" rx="12" fill="#fffbeb" stroke="#f59e0b" stroke-width="1"/>
<text x="354.0" y="512" class="badge" fill="#b45309" text-anchor="middle">EPSS</text>
<line x1="670" y1="236" x2="602" y2="290" stroke="#9ca3af" stroke-width="1.4" opacity="0.65"/>
<line x1="670" y1="236" x2="738" y2="290" stroke="#9ca3af" stroke-width="1.4" opacity="0.65"/>
<line x1="670" y1="236" x2="712" y2="346" stroke="#9ca3af" stroke-width="1.4" opacity="0.65"/>
<line x1="602" y1="290" x2="636" y2="346" stroke="#9ca3af" stroke-width="1.4" opacity="0.65"/>
<line x1="602" y1="290" x2="712" y2="346" stroke="#9ca3af" stroke-width="1.4" opacity="0.65"/>
<line x1="738" y1="290" x2="636" y2="346" stroke="#9ca3af" stroke-width="1.4" opacity="0.65"/>
<line x1="738" y1="290" x2="712" y2="346" stroke="#9ca3af" stroke-width="1.4" opacity="0.65"/>
<line x1="636" y1="346" x2="712" y2="346" stroke="#9ca3af" stroke-width="1.4" opacity="0.65"/>
<circle cx="670" cy="236" r="30" fill="#fff1f2" stroke="#fb7185" stroke-width="2"/>
<text x="670" y="240" class="node" fill="#be123c" text-anchor="middle">Finding</text>
<circle cx="602" cy="290" r="30" fill="#eff6ff" stroke="#60a5fa" stroke-width="2"/>
<text x="602" y="294" class="node" fill="#1d4ed8" text-anchor="middle">Asset</text>
<circle cx="738" cy="290" r="30" fill="#f5f3ff" stroke="#a78bfa" stroke-width="2"/>
<text x="738" y="294" class="node" fill="#6d28d9" text-anchor="middle">Agent</text>
<circle cx="636" cy="346" r="30" fill="#ecfeff" stroke="#22d3ee" stroke-width="2"/>
<text x="636" y="350" class="node" fill="#0e7490" text-anchor="middle">Tool</text>
<circle cx="712" cy="346" r="30" fill="#fff7ed" stroke="#fb923c" stroke-width="2"/>
<text x="712" y="350" class="node" fill="#c2410c" text-anchor="middle">Cred</text>
<text x="670" y="173" class="card-title" fill="#111827" text-anchor="middle">Finding + ContextGraph</text>
<rect x="598" y="386" width="70" height="24" rx="12" fill="#fff1f2" stroke="#fb7185" stroke-width="1"/>
<text x="633.0" y="402" class="badge" fill="#be123c" text-anchor="middle">severity</text>
<rect x="676" y="386" width="86" height="24" rx="12" fill="#f5f3ff" stroke="#a78bfa" stroke-width="1"/>
<text x="719.0" y="402" class="badge" fill="#6d28d9" text-anchor="middle">provenance</text>
<rect x="612" y="418" width="96" height="24" rx="12" fill="#ecfdf5" stroke="#34d399" stroke-width="1"/>
<text x="660.0" y="434" class="badge" fill="#047857" text-anchor="middle">tenant scope</text>
<text x="670" y="468" class="tiny" fill="#6b7280" text-anchor="middle">one model across scans, cloud, runtime, and imports</text>
<rect x="852" y="158" width="124" height="38" rx="12" fill="#ecfdf5" stroke="#34d399" stroke-width="1.5"/>
<circle cx="872" cy="177" r="9" fill="#047857" opacity="0.95"/>
<text x="890" y="181" class="chip" fill="#111827">API</text>
<rect x="852" y="208" width="124" height="38" rx="12" fill="#f5f3ff" stroke="#a78bfa" stroke-width="1.5"/>
<circle cx="872" cy="227" r="9" fill="#6d28d9" opacity="0.95"/>
<text x="890" y="231" class="chip" fill="#111827">UI</text>
<rect x="852" y="258" width="124" height="38" rx="12" fill="#ecfeff" stroke="#22d3ee" stroke-width="1.5"/>
<circle cx="872" cy="277" r="9" fill="#0e7490" opacity="0.95"/>
<text x="890" y="281" class="chip" fill="#111827">MCP</text>
<rect x="852" y="308" width="124" height="38" rx="12" fill="#fff1f2" stroke="#fb7185" stroke-width="1.5"/>
<circle cx="872" cy="327" r="9" fill="#be123c" opacity="0.95"/>
<text x="890" y="331" class="chip" fill="#111827">GATE</text>
<rect x="852" y="358" width="124" height="38" rx="12" fill="#fffbeb" stroke="#f59e0b" stroke-width="1.5"/>
<circle cx="872" cy="377" r="9" fill="#b45309" opacity="0.95"/>
<text x="890" y="381" class="chip" fill="#111827">WORK</text>
<rect x="852" y="408" width="124" height="38" rx="12" fill="#fff7ed" stroke="#fb923c" stroke-width="1.5"/>
<circle cx="872" cy="427" r="9" fill="#c2410c" opacity="0.95"/>
<text x="890" y="431" class="chip" fill="#111827">AUDIT</text>
<text x="925" y="468" class="tiny" fill="#6b7280" text-anchor="middle">auth · RBAC · scopes · audit</text>
<rect x="1082" y="158" width="112" height="24" rx="12" fill="#ecfdf5" stroke="#34d399" stroke-width="1"/>
<text x="1138.0" y="174" class="badge" fill="#047857" text-anchor="middle">SARIF</text>
<rect x="1082" y="201" width="112" height="24" rx="12" fill="#fffbeb" stroke="#f59e0b" stroke-width="1"/>
<text x="1138.0" y="217" class="badge" fill="#b45309" text-anchor="middle">SBOM</text>
<rect x="1082" y="244" width="112" height="24" rx="12" fill="#eff6ff" stroke="#60a5fa" stroke-width="1"/>
<text x="1138.0" y="260" class="badge" fill="#1d4ed8" text-anchor="middle">HTML</text>
<rect x="1082" y="287" width="112" height="24" rx="12" fill="#ecfeff" stroke="#22d3ee" stroke-width="1"/>
<text x="1138.0" y="303" class="badge" fill="#0e7490" text-anchor="middle">JSON</text>
<rect x="1082" y="330" width="112" height="24" rx="12" fill="#f5f3ff" stroke="#a78bfa" stroke-width="1"/>
<text x="1138.0" y="346" class="badge" fill="#6d28d9" text-anchor="middle">POSTURE</text>
<rect x="1082" y="373" width="112" height="24" rx="12" fill="#fff1f2" stroke="#fb7185" stroke-width="1"/>
<text x="1138.0" y="389" class="badge" fill="#be123c" text-anchor="middle">FIX</text>
<text x="1140" y="450" class="tiny" fill="#6b7280" text-anchor="middle">reports</text>
<text x="1140" y="468" class="tiny" fill="#6b7280" text-anchor="middle">gates</text>
<text x="1140" y="486" class="tiny" fill="#6b7280" text-anchor="middle">runtime decisions</text>
<line x1="260" y1="307" x2="300" y2="307" stroke="#9ca3af" stroke-width="2.5" marker-end="url(#arrow)"/><text x="280.0" y="297" class="tiny" fill="#6b7280" text-anchor="middle">collect</text>
<line x1="510" y1="307" x2="550" y2="307" stroke="#9ca3af" stroke-width="2.5" marker-end="url(#arrow)"/><text x="530.0" y="297" class="tiny" fill="#6b7280" text-anchor="middle">canonicalize</text>
<line x1="790" y1="307" x2="830" y2="307" stroke="#9ca3af" stroke-width="2.5" marker-end="url(#arrow)"/><text x="810.0" y="297" class="tiny" fill="#6b7280" text-anchor="middle">serve</text>
<line x1="1020" y1="307" x2="1060" y2="307" stroke="#9ca3af" stroke-width="2.5" marker-end="url(#arrow)"/><text x="1040.0" y="297" class="tiny" fill="#6b7280" text-anchor="middle">export</text>
<rect x="40" y="532" width="1180" height="42" rx="14" fill="#ecfdf5" stroke="#34d399" stroke-width="1"/>
<text x="62" y="558" class="tiny" fill="#047857">Trust boundary:</text>
<text x="164" y="558" class="tiny" fill="#4b5563">default-off cloud connectors · read-only permissions · secret redaction · signed/auditable evidence · same data model everywhere</text>
</svg>