<svg xmlns="http://www.w3.org/2000/svg" viewBox="0 0 980 420" fill="none" role="img" aria-labelledby="pv-light-title">
<title id="pv-light-title">agent-bom personas and value</title>
<rect width="980" height="420" rx="14" fill="#ffffff"/>
<text x="36" y="42" font-family="Inter,system-ui,sans-serif" font-size="22" font-weight="850" fill="#18181b">Who it serves · what they get</text>
<text x="36" y="62" font-family="Inter,system-ui,sans-serif" font-size="10.5" font-weight="500" fill="#71717a">One evidence model — different buyers, same inventory → findings → graph → gates</text>
<defs><marker id="pv-light" viewBox="0 0 10 8" refX="8.5" refY="4" markerWidth="9" markerHeight="7" orient="auto"><path d="M0 0 L10 4 L0 8 Z" fill="#7c3aed"/></marker></defs>
<text x="36" y="98" font-family="Inter,system-ui,sans-serif" font-size="8" font-weight="800" letter-spacing="0.12em" fill="#7c3aed">PERSONAS</text>
<text x="500" y="98" font-family="Inter,system-ui,sans-serif" font-size="8" font-weight="800" letter-spacing="0.12em" fill="#7c3aed">VALUE PROOF</text>
<rect x="36" y="112" width="420" height="56" rx="11" fill="#ffffff" stroke="#e6e6ea"/>
<rect x="48" y="126" width="26" height="26" rx="7" fill="#f4f4f6" stroke="#e6e6ea"/><g transform="translate(53,131)" fill="none" stroke="#7c3aed" stroke-width="1.55" stroke-linecap="round" stroke-linejoin="round"><path d="M12 3l8 3v6c0 5-3.5 8-8 9-4.5-1-8-4-8-9V6z"/><path d="M9 12l2 2 4-4"/></g>
<text x="88" y="138" font-family="Inter,system-ui,sans-serif" font-size="12" font-weight="700" fill="#18181b">AppSec / GRC</text>
<text x="88" y="154" font-family="ui-monospace,monospace" font-size="8.5" font-weight="600" fill="#34d399">SARIF · compliance · audit chain</text>
<rect x="36" y="180" width="420" height="56" rx="11" fill="#ffffff" stroke="#e6e6ea"/>
<rect x="48" y="194" width="26" height="26" rx="7" fill="#f4f4f6" stroke="#e6e6ea"/><g transform="translate(53,199)" fill="none" stroke="#7c3aed" stroke-width="1.55" stroke-linecap="round" stroke-linejoin="round"><path d="M12 4l7 2.5v5c0 4.5-3 7-7 8.5-4-1.5-7-4-7-8.5v-5z"/><path d="M9 12l2 2 4-4"/></g>
<text x="88" y="206" font-family="Inter,system-ui,sans-serif" font-size="12" font-weight="700" fill="#18181b">Platform / SRE</text>
<text x="88" y="222" font-family="ui-monospace,monospace" font-size="8.5" font-weight="600" fill="#fbbf24">fleet · Helm · CI gates</text>
<rect x="36" y="248" width="420" height="56" rx="11" fill="#ffffff" stroke="#e6e6ea"/>
<rect x="48" y="262" width="26" height="26" rx="7" fill="#f4f4f6" stroke="#e6e6ea"/><g transform="translate(53,267)" fill="none" stroke="#7c3aed" stroke-width="1.55" stroke-linecap="round" stroke-linejoin="round"><circle cx="12" cy="9" r="3"/><circle cx="8" cy="17" r="2.4"/><circle cx="16" cy="17" r="2.4"/><path d="M10 11l-2 4 M14 11l2 4"/></g>
<text x="88" y="274" font-family="Inter,system-ui,sans-serif" font-size="12" font-weight="700" fill="#18181b">Agent builders</text>
<text x="88" y="290" font-family="ui-monospace,monospace" font-size="8.5" font-weight="600" fill="#60a5fa">MCP inventory · runtime shield</text>
<rect x="36" y="316" width="420" height="56" rx="11" fill="#ffffff" stroke="#e6e6ea"/>
<rect x="48" y="330" width="26" height="26" rx="7" fill="#f4f4f6" stroke="#e6e6ea"/><g transform="translate(53,335)" fill="none" stroke="#7c3aed" stroke-width="1.55" stroke-linecap="round" stroke-linejoin="round"><circle cx="8" cy="8" r="2.5"/><circle cx="16" cy="8" r="2.5"/><circle cx="12" cy="16" r="2.5"/><path d="M10 9.5l1.5 5 M14 9.5l-1.5 5"/></g>
<text x="88" y="342" font-family="Inter,system-ui,sans-serif" font-size="12" font-weight="700" fill="#18181b">Security engineers</text>
<text x="88" y="358" font-family="ui-monospace,monospace" font-size="8.5" font-weight="600" fill="#a78bfa">blast radius · attack paths</text>
<rect x="500" y="112" width="444" height="56" rx="11" fill="#f5f3ff" stroke="#c4b5fd"/>
<rect x="512" y="126" width="26" height="26" rx="7" fill="#f4f4f6" stroke="#e6e6ea"/><g transform="translate(517,131)" fill="none" stroke="#7c3aed" stroke-width="1.55" stroke-linecap="round" stroke-linejoin="round"><path d="M8 10h8M6 14h12M9 6l-2 2M15 6l2 2M9 18l-2 2M15 18l2 2"/><circle cx="12" cy="12" r="4"/></g>
<text x="552" y="138" font-family="Inter,system-ui,sans-serif" font-size="12" font-weight="700" fill="#18181b">Accurate SCA</text>
<text x="552" y="154" font-family="ui-monospace,monospace" font-size="8.5" font-weight="600" fill="#71717a">15 ecosystems · distro-aware</text>
<line x1="456" y1="140" x2="500" y2="140" stroke="#7c3aed" stroke-width="1.8" marker-end="url(#pv-light)"/>
<rect x="500" y="180" width="444" height="56" rx="11" fill="#f5f3ff" stroke="#c4b5fd"/>
<rect x="512" y="194" width="26" height="26" rx="7" fill="#f4f4f6" stroke="#e6e6ea"/><g transform="translate(517,199)" fill="none" stroke="#7c3aed" stroke-width="1.55" stroke-linecap="round" stroke-linejoin="round"><rect x="5" y="6" width="14" height="12" rx="2"/><path d="M7 15l3-3 2 2 3-3 2 4"/></g>
<text x="552" y="206" font-family="Inter,system-ui,sans-serif" font-size="12" font-weight="700" fill="#18181b">Container coverage</text>
<text x="552" y="222" font-family="ui-monospace,monospace" font-size="8.5" font-weight="600" fill="#71717a">OCI native · optional Grype</text>
<line x1="456" y1="208" x2="500" y2="208" stroke="#7c3aed" stroke-width="1.8" marker-end="url(#pv-light)"/>
<rect x="500" y="248" width="444" height="56" rx="11" fill="#f5f3ff" stroke="#c4b5fd"/>
<rect x="512" y="262" width="26" height="26" rx="7" fill="#f4f4f6" stroke="#e6e6ea"/><g transform="translate(517,267)" fill="none" stroke="#7c3aed" stroke-width="1.55" stroke-linecap="round" stroke-linejoin="round"><path d="M6 5h12v14H6z M9 9h8 M9 12h8"/><path d="M9 16l2 2 4-4"/></g>
<text x="552" y="274" font-family="Inter,system-ui,sans-serif" font-size="12" font-weight="700" fill="#18181b">Self-hosted evidence</text>
<text x="552" y="290" font-family="ui-monospace,monospace" font-size="8.5" font-weight="600" fill="#71717a">your VPC · signed audit</text>
<line x1="456" y1="276" x2="500" y2="276" stroke="#7c3aed" stroke-width="1.8" marker-end="url(#pv-light)"/>
<rect x="500" y="316" width="444" height="56" rx="11" fill="#f5f3ff" stroke="#c4b5fd"/>
<rect x="512" y="330" width="26" height="26" rx="7" fill="#f4f4f6" stroke="#e6e6ea"/><g transform="translate(517,335)" fill="none" stroke="#7c3aed" stroke-width="1.55" stroke-linecap="round" stroke-linejoin="round"><path d="M8 8l-4 4 4 4M16 8l4 4-4 4"/></g>
<text x="552" y="342" font-family="Inter,system-ui,sans-serif" font-size="12" font-weight="700" fill="#18181b">Agent-native API</text>
<text x="552" y="358" font-family="ui-monospace,monospace" font-size="8.5" font-weight="600" fill="#71717a">283 ops · 70 MCP tools</text>
<line x1="456" y1="344" x2="500" y2="344" stroke="#7c3aed" stroke-width="1.8" marker-end="url(#pv-light)"/>
<rect x="36" y="372" width="908" height="28" rx="8" fill="#ecfdf5" stroke="#bbf7d0"/><text x="490" y="390" text-anchor="middle" font-family="Inter,system-ui,sans-serif" font-size="9" font-weight="600" fill="#15803d">LOCAL SCAN · CONTROL PLANE · RUNTIME ENFORCEMENT — same Finding + UnifiedGraph everywhere</text>
</svg>
