<?xml version="1.0" encoding="UTF-8"?>
<svg xmlns="http://www.w3.org/2000/svg" width="1280" height="236" viewBox="0 0 1280 236" fill="none">
<title>agent-bom personas and value</title>
<rect width="1280" height="236" rx="12" fill="#16161d"/>
<rect x="23" y="18" width="235" height="174" rx="12" fill="#a78bfa"/>
<rect x="23" y="22" width="235" height="170" rx="12" fill="#161619" stroke="#2a2a31" stroke-width="1.4"/>
<rect x="37" y="32" width="40" height="40" rx="11" fill="#a78bfa" opacity="0.16"/><g transform="translate(41,36) scale(1.3333333333333333)"><circle cx="10.5" cy="7.5" r="3.4" fill="#a78bfa"/><path d="M4 19.5c0-4 2.9-6 6.5-6s6.5 2 6.5 6z" fill="#a78bfa"/><circle cx="18.5" cy="18" r="6" fill="#161619"/><circle cx="18.5" cy="18" r="4.6" fill="#a78bfa"/><g fill="none" stroke="#0f0f13" stroke-width="1.3" stroke-linecap="round" stroke-linejoin="round"><rect x="16.2" y="14.7" width="4.6" height="6.2" rx="1" fill="#0f0f13" stroke="none"/><path d="M17.3 17.9l.95.95 1.75-1.75" stroke="#a78bfa" stroke-width="1.05"/></g></g>
<text x="85" y="58" font-family="Inter,system-ui,sans-serif" font-size="15.5" font-weight="800" fill="#e9e9ec">Developers</text>
<rect x="37" y="82" width="65" height="18" rx="6" fill="#a78bfa" fill-opacity="0.12" stroke="#a78bfa" stroke-opacity="0.4"/>
<text x="69.5" y="95" text-anchor="middle" font-family="Inter,system-ui,sans-serif" font-size="8.5" font-weight="700" fill="#a78bfa">local scan</text>
<rect x="108" y="82" width="45" height="18" rx="6" fill="#a78bfa" fill-opacity="0.12" stroke="#a78bfa" stroke-opacity="0.4"/>
<text x="130.5" y="95" text-anchor="middle" font-family="Inter,system-ui,sans-serif" font-size="8.5" font-weight="700" fill="#a78bfa">images</text>
<rect x="159" y="82" width="55" height="18" rx="6" fill="#a78bfa" fill-opacity="0.12" stroke="#a78bfa" stroke-opacity="0.4"/>
<text x="186.5" y="95" text-anchor="middle" font-family="Inter,system-ui,sans-serif" font-size="8.5" font-weight="700" fill="#a78bfa">CI gates</text>
<line x1="39" y1="110" x2="242" y2="110" stroke="#2a2a31" stroke-width="1"/>
<polygon points="140,120 135,113 145,113" fill="#a78bfa" opacity="0.9"/>
<rect x="35" y="126" width="211" height="52" rx="8" fill="#a78bfa" opacity="0.10"/>
<rect x="35" y="126" width="211" height="52" rx="8" fill="none" stroke="#a78bfa" opacity="0.4"/>
<rect x="43" y="142" width="3" height="14" rx="1.5" fill="#a78bfa"/>
<text x="53" y="150" font-family="Inter,system-ui,sans-serif" font-size="13.5" font-weight="800" fill="#e9e9ec">Accurate SCA</text>
<text x="53" y="170" font-family="Inter,system-ui,sans-serif" font-size="10" font-weight="600" fill="#82828c">15 ecosystems · EPSS/KEV · distro-aware</text>
<rect x="272" y="18" width="235" height="174" rx="12" fill="#2dd4bf"/>
<rect x="272" y="22" width="235" height="170" rx="12" fill="#161619" stroke="#2a2a31" stroke-width="1.4"/>
<rect x="286" y="32" width="40" height="40" rx="11" fill="#2dd4bf" opacity="0.16"/><g transform="translate(290,36) scale(1.3333333333333333)"><circle cx="10.5" cy="7.5" r="3.4" fill="#2dd4bf"/><path d="M4 19.5c0-4 2.9-6 6.5-6s6.5 2 6.5 6z" fill="#2dd4bf"/><circle cx="18.5" cy="18" r="6" fill="#161619"/><circle cx="18.5" cy="18" r="4.6" fill="#2dd4bf"/><g fill="none" stroke="#0f0f13" stroke-width="1.3" stroke-linecap="round" stroke-linejoin="round"><path d="M18.5 14.3l3.15 1.15v2.1c0 2.1-1.4 3.5-3.15 4-1.75-.5-3.15-1.9-3.15-4v-2.1z" fill="#0f0f13" stroke="none"/><path d="M17.1 17.95l1 1 1.8-1.8" stroke="#2dd4bf" stroke-width="1.05"/></g></g>
<text x="334" y="58" font-family="Inter,system-ui,sans-serif" font-size="15.5" font-weight="800" fill="#e9e9ec">AppSec</text>
<rect x="286" y="82" width="40" height="18" rx="6" fill="#2dd4bf" fill-opacity="0.12" stroke="#2dd4bf" stroke-opacity="0.4"/>
<text x="306.0" y="95" text-anchor="middle" font-family="Inter,system-ui,sans-serif" font-size="8.5" font-weight="700" fill="#2dd4bf">SARIF</text>
<rect x="332" y="82" width="74" height="18" rx="6" fill="#2dd4bf" fill-opacity="0.12" stroke="#2dd4bf" stroke-opacity="0.4"/>
<text x="369.0" y="95" text-anchor="middle" font-family="Inter,system-ui,sans-serif" font-size="8.5" font-weight="700" fill="#2dd4bf">reachability</text>
<rect x="412" y="82" width="69" height="18" rx="6" fill="#2dd4bf" fill-opacity="0.12" stroke="#2dd4bf" stroke-opacity="0.4"/>
<text x="446.5" y="95" text-anchor="middle" font-family="Inter,system-ui,sans-serif" font-size="8.5" font-weight="700" fill="#2dd4bf">graph paths</text>
<line x1="288" y1="110" x2="491" y2="110" stroke="#2a2a31" stroke-width="1"/>
<polygon points="389,120 384,113 394,113" fill="#2dd4bf" opacity="0.9"/>
<rect x="284" y="126" width="211" height="52" rx="8" fill="#2dd4bf" opacity="0.10"/>
<rect x="284" y="126" width="211" height="52" rx="8" fill="none" stroke="#2dd4bf" opacity="0.4"/>
<rect x="292" y="142" width="3" height="14" rx="1.5" fill="#2dd4bf"/>
<text x="302" y="150" font-family="Inter,system-ui,sans-serif" font-size="13.5" font-weight="800" fill="#e9e9ec">Triage by reachability</text>
<text x="302" y="170" font-family="Inter,system-ui,sans-serif" font-size="10" font-weight="600" fill="#82828c">blast radius · CI gates · exit codes</text>
<rect x="521" y="18" width="235" height="174" rx="12" fill="#38bdf8"/>
<rect x="521" y="22" width="235" height="170" rx="12" fill="#161619" stroke="#2a2a31" stroke-width="1.4"/>
<rect x="535" y="32" width="40" height="40" rx="11" fill="#38bdf8" opacity="0.16"/><g transform="translate(539,36) scale(1.3333333333333333)"><circle cx="10.5" cy="7.5" r="3.4" fill="#38bdf8"/><path d="M4 19.5c0-4 2.9-6 6.5-6s6.5 2 6.5 6z" fill="#38bdf8"/><circle cx="18.5" cy="18" r="6" fill="#161619"/><circle cx="18.5" cy="18" r="4.6" fill="#38bdf8"/><g fill="none" stroke="#0f0f13" stroke-width="1.3" stroke-linecap="round" stroke-linejoin="round"><path d="M18.5 15.1l3.1 1.55-3.1 1.55-3.1-1.55z"/><path d="M15.7 18.85l2.8 1.4 2.8-1.4"/></g></g>
<text x="583" y="58" font-family="Inter,system-ui,sans-serif" font-size="15.5" font-weight="800" fill="#e9e9ec">Platform / SRE</text>
<rect x="535" y="82" width="65" height="18" rx="6" fill="#38bdf8" fill-opacity="0.12" stroke="#38bdf8" stroke-opacity="0.4"/>
<text x="567.5" y="95" text-anchor="middle" font-family="Inter,system-ui,sans-serif" font-size="8.5" font-weight="700" fill="#38bdf8">fleet sync</text>
<rect x="606" y="82" width="35" height="18" rx="6" fill="#38bdf8" fill-opacity="0.12" stroke="#38bdf8" stroke-opacity="0.4"/>
<text x="623.5" y="95" text-anchor="middle" font-family="Inter,system-ui,sans-serif" font-size="8.5" font-weight="700" fill="#38bdf8">Helm</text>
<rect x="647" y="82" width="25" height="18" rx="6" fill="#38bdf8" fill-opacity="0.12" stroke="#38bdf8" stroke-opacity="0.4"/>
<text x="659.5" y="95" text-anchor="middle" font-family="Inter,system-ui,sans-serif" font-size="8.5" font-weight="700" fill="#38bdf8">CI</text>
<rect x="678" y="82" width="35" height="18" rx="6" fill="#38bdf8" fill-opacity="0.12" stroke="#38bdf8" stroke-opacity="0.4"/>
<text x="695.5" y="95" text-anchor="middle" font-family="Inter,system-ui,sans-serif" font-size="8.5" font-weight="700" fill="#38bdf8">SBOM</text>
<line x1="537" y1="110" x2="740" y2="110" stroke="#2a2a31" stroke-width="1"/>
<polygon points="638,120 633,113 643,113" fill="#38bdf8" opacity="0.9"/>
<rect x="533" y="126" width="211" height="52" rx="8" fill="#38bdf8" opacity="0.10"/>
<rect x="533" y="126" width="211" height="52" rx="8" fill="none" stroke="#38bdf8" opacity="0.4"/>
<rect x="541" y="142" width="3" height="14" rx="1.5" fill="#38bdf8"/>
<text x="551" y="150" font-family="Inter,system-ui,sans-serif" font-size="13.5" font-weight="800" fill="#e9e9ec">Self-hosted control plane</text>
<text x="551" y="170" font-family="Inter,system-ui,sans-serif" font-size="10" font-weight="600" fill="#82828c">your VPC · Postgres · signed audit</text>
<rect x="770" y="18" width="235" height="174" rx="12" fill="#fbbf24"/>
<rect x="770" y="22" width="235" height="170" rx="12" fill="#161619" stroke="#2a2a31" stroke-width="1.4"/>
<rect x="784" y="32" width="40" height="40" rx="11" fill="#fbbf24" opacity="0.16"/><g transform="translate(788,36) scale(1.3333333333333333)"><circle cx="10.5" cy="7.5" r="3.4" fill="#fbbf24"/><path d="M4 19.5c0-4 2.9-6 6.5-6s6.5 2 6.5 6z" fill="#fbbf24"/><circle cx="18.5" cy="18" r="6" fill="#161619"/><circle cx="18.5" cy="18" r="4.6" fill="#fbbf24"/><g fill="none" stroke="#0f0f13" stroke-width="1.3" stroke-linecap="round" stroke-linejoin="round"><rect x="16.0" y="14.6" width="5.0" height="6.6" rx="0.9" fill="none" stroke="#0f0f13" stroke-width="1.05"/><path d="M17.2 14.2h2.6v1.2h-2.6z" fill="#0f0f13" stroke="none"/><path d="M17.1 17.0h2.8 M17.1 18.4h2.8 M17.1 19.8h1.8" stroke="#0f0f13" stroke-width="1.0"/></g></g>
<text x="832" y="58" font-family="Inter,system-ui,sans-serif" font-size="15.5" font-weight="800" fill="#e9e9ec">GRC / audit</text>
<rect x="784" y="82" width="65" height="18" rx="6" fill="#fbbf24" fill-opacity="0.12" stroke="#fbbf24" stroke-opacity="0.4"/>
<text x="816.5" y="95" text-anchor="middle" font-family="Inter,system-ui,sans-serif" font-size="8.5" font-weight="700" fill="#fbbf24">compliance</text>
<rect x="855" y="82" width="55" height="18" rx="6" fill="#fbbf24" fill-opacity="0.12" stroke="#fbbf24" stroke-opacity="0.4"/>
<text x="882.5" y="95" text-anchor="middle" font-family="Inter,system-ui,sans-serif" font-size="8.5" font-weight="700" fill="#fbbf24">evidence</text>
<rect x="916" y="82" width="65" height="18" rx="6" fill="#fbbf24" fill-opacity="0.12" stroke="#fbbf24" stroke-opacity="0.4"/>
<text x="948.5" y="95" text-anchor="middle" font-family="Inter,system-ui,sans-serif" font-size="8.5" font-weight="700" fill="#fbbf24">frameworks</text>
<line x1="786" y1="110" x2="989" y2="110" stroke="#2a2a31" stroke-width="1"/>
<polygon points="887,120 882,113 892,113" fill="#fbbf24" opacity="0.9"/>
<rect x="782" y="126" width="211" height="52" rx="8" fill="#fbbf24" opacity="0.10"/>
<rect x="782" y="126" width="211" height="52" rx="8" fill="none" stroke="#fbbf24" opacity="0.4"/>
<rect x="790" y="142" width="3" height="14" rx="1.5" fill="#fbbf24"/>
<text x="800" y="150" font-family="Inter,system-ui,sans-serif" font-size="13.5" font-weight="800" fill="#e9e9ec">Audit-ready exports</text>
<text x="800" y="170" font-family="Inter,system-ui,sans-serif" font-size="10" font-weight="600" fill="#82828c">control mappings · signed bundles</text>
<rect x="1019" y="18" width="235" height="174" rx="12" fill="#fb7185"/>
<rect x="1019" y="22" width="235" height="170" rx="12" fill="#161619" stroke="#2a2a31" stroke-width="1.4"/>
<rect x="1033" y="32" width="40" height="40" rx="11" fill="#fb7185" opacity="0.16"/><g transform="translate(1037,36) scale(1.3333333333333333)"><circle cx="10.5" cy="7.5" r="3.4" fill="#fb7185"/><path d="M4 19.5c0-4 2.9-6 6.5-6s6.5 2 6.5 6z" fill="#fb7185"/><circle cx="18.5" cy="18" r="6" fill="#161619"/><circle cx="18.5" cy="18" r="4.6" fill="#fb7185"/><g fill="none" stroke="#0f0f13" stroke-width="1.3" stroke-linecap="round" stroke-linejoin="round"><rect x="16" y="16.4" width="5" height="3.8" rx="1.1"/><path d="M17.6 18.3h.01 M19.4 18.3h.01 M18.5 14.6v1.8"/></g></g>
<text x="1081" y="58" font-family="Inter,system-ui,sans-serif" font-size="15.5" font-weight="800" fill="#e9e9ec">AI / MCP owners</text>
<rect x="1033" y="82" width="79" height="18" rx="6" fill="#fb7185" fill-opacity="0.12" stroke="#fb7185" stroke-opacity="0.4"/>
<text x="1072.5" y="95" text-anchor="middle" font-family="Inter,system-ui,sans-serif" font-size="8.5" font-weight="700" fill="#fb7185">MCP inventory</text>
<rect x="1118" y="82" width="94" height="18" rx="6" fill="#fb7185" fill-opacity="0.12" stroke="#fb7185" stroke-opacity="0.4"/>
<text x="1165.0" y="95" text-anchor="middle" font-family="Inter,system-ui,sans-serif" font-size="8.5" font-weight="700" fill="#fb7185">allow/warn/block</text>
<line x1="1035" y1="110" x2="1238" y2="110" stroke="#2a2a31" stroke-width="1"/>
<polygon points="1136,120 1131,113 1141,113" fill="#fb7185" opacity="0.9"/>
<rect x="1031" y="126" width="211" height="52" rx="8" fill="#fb7185" opacity="0.10"/>
<rect x="1031" y="126" width="211" height="52" rx="8" fill="none" stroke="#fb7185" opacity="0.4"/>
<rect x="1039" y="142" width="3" height="14" rx="1.5" fill="#fb7185"/>
<text x="1049" y="150" font-family="Inter,system-ui,sans-serif" font-size="13.5" font-weight="800" fill="#e9e9ec">Agent-native surface</text>
<text x="1049" y="170" font-family="Inter,system-ui,sans-serif" font-size="10" font-weight="600" fill="#82828c">371 API ops · 77 MCP tools · SARIF</text>
<rect x="24" y="196" width="1232" height="28" rx="8" fill="#0c1a14" stroke="#1f4438"/><text x="640" y="216" text-anchor="middle" font-family="Inter,system-ui,sans-serif" font-size="8.5" font-weight="600" fill="#4ade80">LOCAL SCAN · CONTROL PLANE · RUNTIME — same Finding + UnifiedGraph</text>
</svg>
