<svg xmlns="http://www.w3.org/2000/svg" viewBox="0 0 880 400" fill="none">
  <!-- Background -->
  <rect width="880" height="400" rx="16" fill="#0d1117" stroke="#30363d" stroke-width="1.5"/>

  <!-- Title -->
  <text x="440" y="28" text-anchor="middle" font-family="system-ui, sans-serif" font-size="16" font-weight="700" fill="#e6edf3">Enterprise Scan Workflow</text>
  <text x="440" y="48" text-anchor="middle" font-family="system-ui, sans-serif" font-size="11" fill="#8b949e">How agent-bom discovers, scans, analyzes, and reports across your AI infrastructure</text>

  <!-- ─── COLUMN 1: INPUTS ─── -->
  <rect x="20" y="64" width="190" height="300" rx="12" fill="#161b22" stroke="#3b82f6" stroke-width="1.5" opacity="0.95"/>
  <text x="115" y="86" text-anchor="middle" font-family="system-ui, sans-serif" font-size="11" font-weight="700" fill="#60a5fa" letter-spacing="0.08em">INPUT SOURCES</text>

  <rect x="34" y="98" width="162" height="34" rx="8" fill="#0d1117" stroke="#3b82f6" stroke-width="1"/>
  <text x="115" y="120" text-anchor="middle" font-family="system-ui, sans-serif" font-size="12" font-weight="600" fill="#93c5fd">MCP Configs (18)</text>

  <rect x="34" y="140" width="162" height="34" rx="8" fill="#0d1117" stroke="#3b82f6" stroke-width="1"/>
  <text x="115" y="162" text-anchor="middle" font-family="system-ui, sans-serif" font-size="12" font-weight="600" fill="#93c5fd">Docker Images</text>

  <rect x="34" y="182" width="162" height="34" rx="8" fill="#0d1117" stroke="#3b82f6" stroke-width="1"/>
  <text x="115" y="204" text-anchor="middle" font-family="system-ui, sans-serif" font-size="12" font-weight="600" fill="#93c5fd">Kubernetes</text>

  <rect x="34" y="224" width="162" height="34" rx="8" fill="#0d1117" stroke="#3b82f6" stroke-width="1"/>
  <text x="115" y="246" text-anchor="middle" font-family="system-ui, sans-serif" font-size="12" font-weight="600" fill="#93c5fd">Cloud APIs</text>

  <rect x="34" y="266" width="162" height="34" rx="8" fill="#0d1117" stroke="#3b82f6" stroke-width="1"/>
  <text x="115" y="288" text-anchor="middle" font-family="system-ui, sans-serif" font-size="12" font-weight="600" fill="#93c5fd">SBOMs / IaC</text>

  <rect x="34" y="308" width="162" height="34" rx="8" fill="#0d1117" stroke="#3b82f6" stroke-width="1"/>
  <text x="115" y="330" text-anchor="middle" font-family="system-ui, sans-serif" font-size="12" font-weight="600" fill="#93c5fd">AI Frameworks</text>

  <!-- Arrow 1→2 -->
  <path d="M210 214 L234 214" stroke="#60a5fa" stroke-width="2.5" stroke-linecap="round"/>
  <path d="M229 209 L238 214 L229 219" fill="#60a5fa"/>

  <!-- ─── COLUMN 2: PIPELINE ─── -->
  <rect x="240" y="64" width="190" height="300" rx="12" fill="#161b22" stroke="#d97706" stroke-width="1.5" opacity="0.95"/>
  <text x="335" y="86" text-anchor="middle" font-family="system-ui, sans-serif" font-size="11" font-weight="700" fill="#fbbf24" letter-spacing="0.08em">SCANNER PIPELINE</text>

  <rect x="254" y="100" width="162" height="38" rx="8" fill="#1c1917" stroke="#f59e0b" stroke-width="1.2"/>
  <text x="335" y="124" text-anchor="middle" font-family="system-ui, sans-serif" font-size="13" font-weight="700" fill="#fbbf24">Discover + Extract</text>

  <path d="M335 138 L335 148" stroke="#f59e0b" stroke-width="1.5"/>
  <path d="M330 144 L335 152 L340 144" fill="#f59e0b"/>

  <rect x="254" y="156" width="162" height="38" rx="8" fill="#1c1917" stroke="#f59e0b" stroke-width="1.2"/>
  <text x="335" y="180" text-anchor="middle" font-family="system-ui, sans-serif" font-size="13" font-weight="700" fill="#fbbf24">CVE Scan</text>

  <path d="M335 194 L335 204" stroke="#f59e0b" stroke-width="1.5"/>
  <path d="M330 200 L335 208 L340 200" fill="#f59e0b"/>

  <rect x="254" y="212" width="162" height="38" rx="8" fill="#1c1917" stroke="#f59e0b" stroke-width="1.2"/>
  <text x="335" y="236" text-anchor="middle" font-family="system-ui, sans-serif" font-size="13" font-weight="700" fill="#fbbf24">Enrich</text>

  <path d="M335 250 L335 260" stroke="#f59e0b" stroke-width="1.5"/>
  <path d="M330 256 L335 264 L340 256" fill="#f59e0b"/>

  <rect x="254" y="268" width="162" height="38" rx="8" fill="#1c1917" stroke="#f59e0b" stroke-width="1.2"/>
  <text x="335" y="292" text-anchor="middle" font-family="system-ui, sans-serif" font-size="13" font-weight="700" fill="#fbbf24">Analyze + Tag</text>

  <rect x="254" y="316" width="162" height="34" rx="8" fill="#1c1917" stroke="#d97706" stroke-width="0.8"/>
  <text x="335" y="338" text-anchor="middle" font-family="system-ui, sans-serif" font-size="10" fill="#d97706">read-only | local execution</text>

  <!-- Arrow 2→3 -->
  <path d="M430 214 L454 214" stroke="#fbbf24" stroke-width="2.5" stroke-linecap="round"/>
  <path d="M449 209 L458 214 L449 219" fill="#fbbf24"/>

  <!-- ─── COLUMN 3: ANALYSIS ─── -->
  <rect x="460" y="64" width="190" height="300" rx="12" fill="#161b22" stroke="#7c3aed" stroke-width="1.5" opacity="0.95"/>
  <text x="555" y="86" text-anchor="middle" font-family="system-ui, sans-serif" font-size="11" font-weight="700" fill="#a78bfa" letter-spacing="0.08em">ANALYSIS</text>

  <rect x="474" y="98" width="162" height="34" rx="8" fill="#0d1117" stroke="#7c3aed" stroke-width="1"/>
  <text x="555" y="120" text-anchor="middle" font-family="system-ui, sans-serif" font-size="12" font-weight="600" fill="#c4b5fd">Blast Radius Engine</text>

  <rect x="474" y="140" width="162" height="34" rx="8" fill="#0d1117" stroke="#7c3aed" stroke-width="1"/>
  <text x="555" y="162" text-anchor="middle" font-family="system-ui, sans-serif" font-size="12" font-weight="600" fill="#c4b5fd">10-Framework Tagging</text>

  <rect x="474" y="182" width="162" height="34" rx="8" fill="#0d1117" stroke="#7c3aed" stroke-width="1"/>
  <text x="555" y="204" text-anchor="middle" font-family="system-ui, sans-serif" font-size="12" font-weight="600" fill="#c4b5fd">Posture Scorecard</text>

  <rect x="474" y="224" width="162" height="34" rx="8" fill="#0d1117" stroke="#7c3aed" stroke-width="1"/>
  <text x="555" y="246" text-anchor="middle" font-family="system-ui, sans-serif" font-size="12" font-weight="600" fill="#c4b5fd">Incident Correlation</text>

  <rect x="474" y="266" width="162" height="34" rx="8" fill="#0d1117" stroke="#7c3aed" stroke-width="1"/>
  <text x="555" y="288" text-anchor="middle" font-family="system-ui, sans-serif" font-size="12" font-weight="600" fill="#c4b5fd">Context Graph</text>

  <rect x="474" y="308" width="162" height="34" rx="8" fill="#0d1117" stroke="#7c3aed" stroke-width="1"/>
  <text x="555" y="330" text-anchor="middle" font-family="system-ui, sans-serif" font-size="12" font-weight="600" fill="#c4b5fd">Policy Evaluation</text>

  <!-- Arrow 3→4 -->
  <path d="M650 214 L674 214" stroke="#a78bfa" stroke-width="2.5" stroke-linecap="round"/>
  <path d="M669 209 L678 214 L669 219" fill="#a78bfa"/>

  <!-- ─── COLUMN 4: OUTPUTS ─── -->
  <rect x="680" y="64" width="182" height="300" rx="12" fill="#161b22" stroke="#10b981" stroke-width="1.5" opacity="0.95"/>
  <text x="771" y="86" text-anchor="middle" font-family="system-ui, sans-serif" font-size="11" font-weight="700" fill="#34d399" letter-spacing="0.08em">OUTPUTS</text>

  <rect x="694" y="98" width="154" height="34" rx="8" fill="#0d1117" stroke="#10b981" stroke-width="1"/>
  <text x="771" y="120" text-anchor="middle" font-family="system-ui, sans-serif" font-size="12" font-weight="600" fill="#6ee7b7">Console + HTML</text>

  <rect x="694" y="140" width="154" height="34" rx="8" fill="#0d1117" stroke="#10b981" stroke-width="1"/>
  <text x="771" y="162" text-anchor="middle" font-family="system-ui, sans-serif" font-size="12" font-weight="600" fill="#6ee7b7">SARIF + SBOM</text>

  <rect x="694" y="182" width="154" height="34" rx="8" fill="#0d1117" stroke="#10b981" stroke-width="1"/>
  <text x="771" y="204" text-anchor="middle" font-family="system-ui, sans-serif" font-size="12" font-weight="600" fill="#6ee7b7">REST API + SSE</text>

  <rect x="694" y="224" width="154" height="34" rx="8" fill="#0d1117" stroke="#10b981" stroke-width="1"/>
  <text x="771" y="246" text-anchor="middle" font-family="system-ui, sans-serif" font-size="12" font-weight="600" fill="#6ee7b7">Dashboard (15 pages)</text>

  <rect x="694" y="266" width="154" height="34" rx="8" fill="#0d1117" stroke="#10b981" stroke-width="1"/>
  <text x="771" y="288" text-anchor="middle" font-family="system-ui, sans-serif" font-size="12" font-weight="600" fill="#6ee7b7">MCP Server (16 tools)</text>

  <rect x="694" y="308" width="154" height="34" rx="8" fill="#0d1117" stroke="#10b981" stroke-width="1"/>
  <text x="771" y="330" text-anchor="middle" font-family="system-ui, sans-serif" font-size="12" font-weight="600" fill="#6ee7b7">Slack / Jira / Webhooks</text>

  <!-- ─── FOOTER ─── -->
  <text x="440" y="388" text-anchor="middle" font-family="system-ui, sans-serif" font-size="10" fill="#6e7681">Read-only | Agentless | Never stores credentials | Only package names sent to APIs | Sigstore signed</text>
</svg>
