<svg xmlns="http://www.w3.org/2000/svg" viewBox="0 0 940 620" fill="none">
  <style>
    .title { font: 700 15px system-ui, -apple-system, sans-serif; fill: #e6edf3; }
    .subtitle { font: 400 10px system-ui, sans-serif; fill: #8b949e; }
    .phase { font: 700 9px system-ui, sans-serif; letter-spacing: 0.1em; }
    .label { font: 600 11px system-ui, sans-serif; }
    .sub { font: 400 9px system-ui, sans-serif; fill: #8b949e; }
    .badge { font: 600 8px system-ui, sans-serif; }
    .data-label { font: 500 8px monospace; }
    .note { font: 400 9px system-ui, sans-serif; fill: #6e7681; }
  </style>
  <defs>
    <marker id="a" viewBox="0 0 8 6" refX="8" refY="3" markerWidth="7" markerHeight="5" orient="auto">
      <path d="M0 0L8 3L0 6Z" fill="#6e7681"/>
    </marker>
    <marker id="ab" viewBox="0 0 8 6" refX="8" refY="3" markerWidth="7" markerHeight="5" orient="auto">
      <path d="M0 0L8 3L0 6Z" fill="#58a6ff"/>
    </marker>
    <marker id="ag" viewBox="0 0 8 6" refX="8" refY="3" markerWidth="7" markerHeight="5" orient="auto">
      <path d="M0 0L8 3L0 6Z" fill="#3fb950"/>
    </marker>
    <marker id="ar" viewBox="0 0 8 6" refX="8" refY="3" markerWidth="7" markerHeight="5" orient="auto">
      <path d="M0 0L8 3L0 6Z" fill="#f85149"/>
    </marker>
    <marker id="ap" viewBox="0 0 8 6" refX="8" refY="3" markerWidth="7" markerHeight="5" orient="auto">
      <path d="M0 0L8 3L0 6Z" fill="#bc8cff"/>
    </marker>
  </defs>

  <!-- Background -->
  <rect width="940" height="620" rx="12" fill="#0d1117" stroke="#30363d" stroke-width="1"/>

  <!-- Title -->
  <text x="470" y="28" text-anchor="middle" class="title">Enterprise Scan Workflow — Architecture &amp; Data Flow</text>
  <text x="470" y="44" text-anchor="middle" class="subtitle">How agent-bom discovers, scans, analyzes, and reports across your AI infrastructure</text>

  <!-- ═══ COLUMN 1: Input Sources (x=20, w=180) ═══ -->
  <rect x="20" y="60" width="180" height="498" rx="8" fill="#161b22" stroke="#1f6feb" stroke-width="1.2"/>
  <text x="110" y="78" text-anchor="middle" class="phase" fill="#58a6ff">INPUT SOURCES</text>

  <rect x="32" y="88" width="156" height="42" rx="6" fill="#0d1117" stroke="#1f6feb" stroke-width="0.8"/>
  <text x="110" y="106" text-anchor="middle" class="label" fill="#58a6ff">MCP Configs</text>
  <text x="110" y="120" text-anchor="middle" class="sub">18 clients auto-discovered</text>

  <rect x="32" y="138" width="156" height="42" rx="6" fill="#0d1117" stroke="#1f6feb" stroke-width="0.8"/>
  <text x="110" y="156" text-anchor="middle" class="label" fill="#58a6ff">Docker Images</text>
  <text x="110" y="170" text-anchor="middle" class="sub">Grype / Syft / Docker CLI</text>

  <rect x="32" y="188" width="156" height="42" rx="6" fill="#0d1117" stroke="#1f6feb" stroke-width="0.8"/>
  <text x="110" y="206" text-anchor="middle" class="label" fill="#58a6ff">Kubernetes</text>
  <text x="110" y="220" text-anchor="middle" class="sub">Multi-namespace pod scan</text>

  <rect x="32" y="238" width="156" height="52" rx="6" fill="#0d1117" stroke="#1f6feb" stroke-width="0.8"/>
  <text x="110" y="256" text-anchor="middle" class="label" fill="#58a6ff">Cloud APIs</text>
  <text x="110" y="270" text-anchor="middle" class="sub">AWS Bedrock · Snowflake Cortex</text>
  <text x="110" y="282" text-anchor="middle" class="sub">Azure AI · GCP Vertex · Databricks</text>

  <rect x="32" y="298" width="156" height="42" rx="6" fill="#0d1117" stroke="#1f6feb" stroke-width="0.8"/>
  <text x="110" y="316" text-anchor="middle" class="label" fill="#58a6ff">SBOMs</text>
  <text x="110" y="330" text-anchor="middle" class="sub">CycloneDX / SPDX import</text>

  <rect x="32" y="348" width="156" height="42" rx="6" fill="#0d1117" stroke="#1f6feb" stroke-width="0.8"/>
  <text x="110" y="366" text-anchor="middle" class="label" fill="#58a6ff">IaC + CI/CD</text>
  <text x="110" y="380" text-anchor="middle" class="sub">Terraform · GitHub Actions</text>

  <rect x="32" y="398" width="156" height="42" rx="6" fill="#0d1117" stroke="#1f6feb" stroke-width="0.8"/>
  <text x="110" y="416" text-anchor="middle" class="label" fill="#58a6ff">AI Frameworks</text>
  <text x="110" y="430" text-anchor="middle" class="sub">LangChain · CrewAI · ADK</text>

  <rect x="32" y="448" width="156" height="42" rx="6" fill="#0d1117" stroke="#1f6feb" stroke-width="0.8"/>
  <text x="110" y="466" text-anchor="middle" class="label" fill="#58a6ff">SaaS Connectors</text>
  <text x="110" y="480" text-anchor="middle" class="sub">Jira · Slack · ServiceNow</text>

  <rect x="32" y="498" width="156" height="50" rx="6" fill="#161b22" stroke="#1f6feb" stroke-width="0.8"/>
  <text x="110" y="516" text-anchor="middle" class="badge" fill="#58a6ff">EXTRACTED DATA</text>
  <text x="110" y="530" text-anchor="middle" class="data-label" fill="#8b949e">packages · versions · PURLs</text>
  <text x="110" y="542" text-anchor="middle" class="data-label" fill="#8b949e">env var names · tool lists</text>

  <!-- Arrow: Sources → Pipeline -->
  <line x1="200" y1="310" x2="228" y2="310" stroke="#58a6ff" stroke-width="2" marker-end="url(#ab)"/>

  <!-- ═══ COLUMN 2: Scanner Pipeline (x=232, w=200) ═══ -->
  <rect x="232" y="60" width="200" height="498" rx="8" fill="#161b22" stroke="#d29922" stroke-width="1.2"/>
  <text x="332" y="78" text-anchor="middle" class="phase" fill="#d29922">SCANNER PIPELINE</text>
  <text x="332" y="92" text-anchor="middle" class="sub">read-only · local execution</text>

  <!-- Step 1 -->
  <rect x="246" y="104" width="172" height="58" rx="6" fill="#0d1117" stroke="#d29922" stroke-width="0.8"/>
  <rect x="246" y="104" width="172" height="18" rx="6" fill="#d29922" opacity="0.15"/>
  <text x="332" y="117" text-anchor="middle" class="badge" fill="#d29922">STEP 1 · DISCOVER</text>
  <text x="332" y="138" text-anchor="middle" class="sub">Auto-detect agent configs</text>
  <text x="332" y="150" text-anchor="middle" class="sub">Parse packages + credentials</text>

  <line x1="332" y1="162" x2="332" y2="176" stroke="#d29922" stroke-width="1.5" marker-end="url(#a)"/>

  <!-- Step 2 -->
  <rect x="246" y="180" width="172" height="58" rx="6" fill="#0d1117" stroke="#d29922" stroke-width="0.8"/>
  <rect x="246" y="180" width="172" height="18" rx="6" fill="#d29922" opacity="0.15"/>
  <text x="332" y="193" text-anchor="middle" class="badge" fill="#d29922">STEP 2 · CVE SCAN</text>
  <text x="332" y="214" text-anchor="middle" class="sub">OSV.dev batch API</text>
  <text x="332" y="226" text-anchor="middle" class="sub">Grype for container images</text>

  <line x1="332" y1="238" x2="332" y2="252" stroke="#d29922" stroke-width="1.5" marker-end="url(#a)"/>

  <!-- Step 3 -->
  <rect x="246" y="256" width="172" height="68" rx="6" fill="#0d1117" stroke="#d29922" stroke-width="0.8"/>
  <rect x="246" y="256" width="172" height="18" rx="6" fill="#d29922" opacity="0.15"/>
  <text x="332" y="269" text-anchor="middle" class="badge" fill="#d29922">STEP 3 · ENRICH</text>
  <text x="332" y="290" text-anchor="middle" class="sub">NVD CVSS v3.1/v4.0 scoring</text>
  <text x="332" y="302" text-anchor="middle" class="sub">FIRST EPSS exploit probability</text>
  <text x="332" y="314" text-anchor="middle" class="sub">CISA KEV + GHSA + NVIDIA CSAF</text>

  <line x1="332" y1="324" x2="332" y2="338" stroke="#d29922" stroke-width="1.5" marker-end="url(#a)"/>

  <!-- Step 4 -->
  <rect x="246" y="342" width="172" height="68" rx="6" fill="#0d1117" stroke="#d29922" stroke-width="0.8"/>
  <rect x="246" y="342" width="172" height="18" rx="6" fill="#d29922" opacity="0.15"/>
  <text x="332" y="355" text-anchor="middle" class="badge" fill="#d29922">STEP 4 · ANALYZE</text>
  <text x="332" y="376" text-anchor="middle" class="sub">Blast radius mapping</text>
  <text x="332" y="388" text-anchor="middle" class="sub">10-framework threat tagging</text>
  <text x="332" y="400" text-anchor="middle" class="sub">Tool poisoning detection</text>

  <line x1="332" y1="410" x2="332" y2="424" stroke="#d29922" stroke-width="1.5" marker-end="url(#a)"/>

  <!-- Step 5 -->
  <rect x="246" y="428" width="172" height="58" rx="6" fill="#0d1117" stroke="#d29922" stroke-width="0.8"/>
  <rect x="246" y="428" width="172" height="18" rx="6" fill="#d29922" opacity="0.15"/>
  <text x="332" y="441" text-anchor="middle" class="badge" fill="#d29922">STEP 5 · CONTEXT GRAPH</text>
  <text x="332" y="462" text-anchor="middle" class="sub">Lateral movement paths</text>
  <text x="332" y="474" text-anchor="middle" class="sub">Shared server/credential analysis</text>

  <line x1="332" y1="486" x2="332" y2="500" stroke="#d29922" stroke-width="1.5" marker-end="url(#a)"/>

  <!-- Step 6 -->
  <rect x="246" y="504" width="172" height="46" rx="6" fill="#0d1117" stroke="#d29922" stroke-width="0.8"/>
  <rect x="246" y="504" width="172" height="18" rx="6" fill="#d29922" opacity="0.15"/>
  <text x="332" y="517" text-anchor="middle" class="badge" fill="#d29922">STEP 6 · REPORT</text>
  <text x="332" y="536" text-anchor="middle" class="sub">Generate outputs + alerts</text>

  <!-- Arrow: Pipeline → Analysis -->
  <line x1="432" y1="310" x2="460" y2="310" stroke="#d29922" stroke-width="2" marker-end="url(#a)"/>

  <!-- ═══ COLUMN 3: Analysis Output (x=464, w=210) ═══ -->
  <rect x="464" y="60" width="210" height="498" rx="8" fill="#161b22" stroke="#bc8cff" stroke-width="1.2"/>
  <text x="569" y="78" text-anchor="middle" class="phase" fill="#bc8cff">ANALYSIS + SCORING</text>

  <rect x="478" y="96" width="182" height="58" rx="6" fill="#0d1117" stroke="#bc8cff" stroke-width="0.8"/>
  <text x="569" y="114" text-anchor="middle" class="label" fill="#bc8cff">Blast Radius Engine</text>
  <text x="569" y="130" text-anchor="middle" class="sub">CVE → pkg → server → agent</text>
  <text x="569" y="142" text-anchor="middle" class="sub">→ credentials → tools → risk score</text>

  <rect x="478" y="162" width="182" height="68" rx="6" fill="#0d1117" stroke="#bc8cff" stroke-width="0.8"/>
  <text x="569" y="180" text-anchor="middle" class="label" fill="#bc8cff">10-Framework Tagging</text>
  <text x="569" y="196" text-anchor="middle" class="sub">OWASP LLM · MCP · Agentic</text>
  <text x="569" y="208" text-anchor="middle" class="sub">MITRE ATLAS · NIST AI RMF</text>
  <text x="569" y="220" text-anchor="middle" class="sub">EU AI Act</text>

  <rect x="478" y="238" width="182" height="48" rx="6" fill="#0d1117" stroke="#bc8cff" stroke-width="0.8"/>
  <text x="569" y="256" text-anchor="middle" class="label" fill="#bc8cff">Posture Scorecard</text>
  <text x="569" y="272" text-anchor="middle" class="sub">Grade A–F · 6 dimensions</text>
  <text x="569" y="282" text-anchor="middle" class="sub">Weighted enterprise score</text>

  <rect x="478" y="294" width="182" height="48" rx="6" fill="#0d1117" stroke="#bc8cff" stroke-width="0.8"/>
  <text x="569" y="312" text-anchor="middle" class="label" fill="#bc8cff">Incident Correlation</text>
  <text x="569" y="328" text-anchor="middle" class="sub">P1–P4 priority by agent</text>
  <text x="569" y="338" text-anchor="middle" class="sub">SOC-ready incident summaries</text>

  <rect x="478" y="350" width="182" height="48" rx="6" fill="#0d1117" stroke="#bc8cff" stroke-width="0.8"/>
  <text x="569" y="368" text-anchor="middle" class="label" fill="#bc8cff">Credential Risk Ranking</text>
  <text x="569" y="384" text-anchor="middle" class="sub">Blast radius severity tiers</text>
  <text x="569" y="394" text-anchor="middle" class="sub">Cross-agent aggregation</text>

  <rect x="478" y="406" width="182" height="48" rx="6" fill="#0d1117" stroke="#bc8cff" stroke-width="0.8"/>
  <text x="569" y="424" text-anchor="middle" class="label" fill="#bc8cff">Context Graph</text>
  <text x="569" y="440" text-anchor="middle" class="sub">Lateral movement BFS paths</text>
  <text x="569" y="450" text-anchor="middle" class="sub">Shared servers + credentials</text>

  <rect x="478" y="462" width="182" height="48" rx="6" fill="#0d1117" stroke="#bc8cff" stroke-width="0.8"/>
  <text x="569" y="480" text-anchor="middle" class="label" fill="#bc8cff">Policy Evaluation</text>
  <text x="569" y="496" text-anchor="middle" class="sub">16 rule conditions</text>
  <text x="569" y="506" text-anchor="middle" class="sub">fail / warn / info gates</text>

  <rect x="478" y="518" width="182" height="32" rx="6" fill="#161b22" stroke="#bc8cff" stroke-width="0.8"/>
  <text x="569" y="538" text-anchor="middle" class="badge" fill="#bc8cff">Remediation: named assets + fix priority</text>

  <!-- Arrow: Analysis → Outputs -->
  <line x1="674" y1="310" x2="702" y2="310" stroke="#bc8cff" stroke-width="2" marker-end="url(#ap)"/>

  <!-- ═══ COLUMN 4: Outputs (x=706, w=214) ═══ -->
  <rect x="706" y="60" width="214" height="498" rx="8" fill="#161b22" stroke="#3fb950" stroke-width="1.2"/>
  <text x="813" y="78" text-anchor="middle" class="phase" fill="#3fb950">DEPLOYMENT SURFACES</text>

  <rect x="720" y="96" width="186" height="42" rx="6" fill="#0d1117" stroke="#3fb950" stroke-width="0.8"/>
  <text x="813" y="114" text-anchor="middle" class="label" fill="#3fb950">Console + HTML Report</text>
  <text x="813" y="128" text-anchor="middle" class="sub">Rich tables · interactive dashboard</text>

  <rect x="720" y="146" width="186" height="42" rx="6" fill="#0d1117" stroke="#3fb950" stroke-width="0.8"/>
  <text x="813" y="164" text-anchor="middle" class="label" fill="#3fb950">SARIF + SBOM Export</text>
  <text x="813" y="178" text-anchor="middle" class="sub">CycloneDX 1.6 · SPDX 3.0 · GitHub</text>

  <rect x="720" y="196" width="186" height="42" rx="6" fill="#0d1117" stroke="#3fb950" stroke-width="0.8"/>
  <text x="813" y="214" text-anchor="middle" class="label" fill="#3fb950">REST API + SSE</text>
  <text x="813" y="228" text-anchor="middle" class="sub">FastAPI :8422 · live streaming</text>

  <rect x="720" y="246" width="186" height="42" rx="6" fill="#0d1117" stroke="#3fb950" stroke-width="0.8"/>
  <text x="813" y="264" text-anchor="middle" class="label" fill="#3fb950">Next.js Dashboard</text>
  <text x="813" y="278" text-anchor="middle" class="sub">15 pages · React Flow graphs</text>

  <rect x="720" y="296" width="186" height="42" rx="6" fill="#0d1117" stroke="#3fb950" stroke-width="0.8"/>
  <text x="813" y="314" text-anchor="middle" class="label" fill="#3fb950">CI/CD Pipeline Gate</text>
  <text x="813" y="328" text-anchor="middle" class="sub">GitHub Actions · --fail-on-severity</text>

  <rect x="720" y="346" width="186" height="42" rx="6" fill="#0d1117" stroke="#3fb950" stroke-width="0.8"/>
  <text x="813" y="364" text-anchor="middle" class="label" fill="#3fb950">MCP Server</text>
  <text x="813" y="378" text-anchor="middle" class="sub">16 tools · stdio + SSE transport</text>

  <rect x="720" y="396" width="186" height="42" rx="6" fill="#0d1117" stroke="#3fb950" stroke-width="0.8"/>
  <text x="813" y="414" text-anchor="middle" class="label" fill="#3fb950">Observability</text>
  <text x="813" y="428" text-anchor="middle" class="sub">Prometheus · OpenTelemetry</text>

  <rect x="720" y="446" width="186" height="42" rx="6" fill="#0d1117" stroke="#3fb950" stroke-width="0.8"/>
  <text x="813" y="464" text-anchor="middle" class="label" fill="#3fb950">Alert Pipeline</text>
  <text x="813" y="478" text-anchor="middle" class="sub">Slack · Jira · Vanta · Drata</text>

  <rect x="720" y="496" width="186" height="60" rx="6" fill="#0d1117" stroke="#3fb950" stroke-width="0.8"/>
  <text x="813" y="514" text-anchor="middle" class="label" fill="#3fb950">Snowflake Deployment</text>
  <text x="813" y="528" text-anchor="middle" class="sub">Snowpark Container Services</text>
  <text x="813" y="540" text-anchor="middle" class="sub">Streamlit · Native App</text>

  <!-- ═══ Bottom Bar: Trust + Data Flow ═══ -->
  <rect x="20" y="570" width="900" height="38" rx="8" fill="#161b22" stroke="#30363d" stroke-width="1"/>
  <text x="470" y="586" text-anchor="middle" class="badge" fill="#8b949e">TRUST MODEL</text>
  <text x="470" y="600" text-anchor="middle" class="note">Read-only · Agentless · Never stores credentials · Only package names sent to APIs · --dry-run preview · Sigstore signed · 2,700+ tests</text>
</svg>
